<svg xmlns="http://www.w3.org/2000/svg" xmlns:xlink="http://www.w3.org/1999/xlink" width="47.583" height="47.583" viewBox="0 0 47.583 47.583"><defs><linearGradient id="a" x1="0.5" x2="0.5" y2="1" gradientUnits="objectBoundingBox"><stop offset="0" stop-color="#0d3955"/><stop offset="1" stop-color="#030b11"/></linearGradient></defs><g transform="translate(0.662 46.921) rotate(-90)"><path d="M0,0H45.143V45.143H0Z" transform="translate(0.558 0.558)" fill="#db8f00"/><path d="M0,0H35.382V35.752H0Z" transform="translate(5.401 40.932) rotate(-90)" fill="#fff6d6"/><path d="M147.666,134.235H139.6v-8.063a1.454,1.454,0,0,0-1.454-1.454h-2.582a1.454,1.454,0,0,0-1.454,1.454v8.063h-7.941a1.454,1.454,0,0,0-1.454,1.454v2.583a1.454,1.454,0,0,0,1.454,1.454h7.941v7.941a1.454,1.454,0,0,0,1.454,1.454h2.582a1.454,1.454,0,0,0,1.454-1.454v-7.941h8.063a1.454,1.454,0,0,0,1.454-1.454v-2.583A1.454,1.454,0,0,0,147.666,134.235Z" transform="translate(-113.79 -113.79)" fill="url(#a)"/><path d="M46.363,0H1.22A1.22,1.22,0,0,0,0,1.22V46.363a1.22,1.22,0,0,0,1.22,1.22H46.363a1.22,1.22,0,0,0,1.22-1.22V1.22A1.22,1.22,0,0,0,46.363,0Zm-1.22,45.143H2.44V2.44h42.7v42.7Z" transform="translate(-0.662 -0.662)" opacity="0"/><path d="M53.733,90.335H89.115a1.22,1.22,0,0,0,1.22-1.22V53.733a1.22,1.22,0,0,0-1.22-1.22H53.733a1.22,1.22,0,0,0-1.22,1.22V89.115A1.22,1.22,0,0,0,53.733,90.335Zm1.22-35.382H87.9V87.9H54.953Z" transform="translate(-48.295 -48.295)" opacity="0"/><path d="M135.758,121.107h-6.843v-6.843a2.677,2.677,0,0,0-2.674-2.674h-2.583a2.677,2.677,0,0,0-2.674,2.674v6.843h-6.721a2.677,2.677,0,0,0-2.674,2.674v2.582a2.677,2.677,0,0,0,2.674,2.674h6.721v6.721a2.677,2.677,0,0,0,2.674,2.674h2.582a2.677,2.677,0,0,0,2.674-2.674v-6.721h6.843a2.677,2.677,0,0,0,2.674-2.674v-2.582A2.677,2.677,0,0,0,135.758,121.107Zm.234,5.256a.234.234,0,0,1-.234.234H127.7a1.22,1.22,0,0,0-1.22,1.22v7.941a.234.234,0,0,1-.234.234h-2.583a.234.234,0,0,1-.234-.234v-7.941a1.22,1.22,0,0,0-1.22-1.22h-7.941a.234.234,0,0,1-.234-.234v-2.582a.234.234,0,0,1,.234-.234H122.2a1.22,1.22,0,0,0,1.22-1.22v-8.063a.234.234,0,0,1,.234-.234h2.582a.234.234,0,0,1,.234.234v8.063a1.22,1.22,0,0,0,1.22,1.22h8.063a.234.234,0,0,1,.234.234v2.582Z" transform="translate(-101.882 -101.882)" opacity="0.002"/></g></svg>