<svg id="cancel" xmlns="http://www.w3.org/2000/svg" width="30.411" height="30.411" viewBox="0 0 30.411 30.411">
  <g id="Group_25" data-name="Group 25" transform="translate(0 0)">
    <g id="Group_24" data-name="Group 24">
      <path id="Path_21" data-name="Path 21" d="M15.205,0A15.205,15.205,0,1,0,30.411,15.205,15.2,15.2,0,0,0,15.205,0Zm0,28.406a13.2,13.2,0,1,1,13.2-13.2A13.215,13.215,0,0,1,15.205,28.406Z" fill="#db8f00"/>
      <path id="Path_22" data-name="Path 22" d="M133.9,121.325a3.006,3.006,0,0,0-4.254,0l-2.02,2.02-2.02-2.02a3.008,3.008,0,0,0-4.254,4.254l2.02,2.02-2.02,2.02a3.008,3.008,0,0,0,4.254,4.254l2.02-2.02,2.02,2.02a3.008,3.008,0,0,0,4.254-4.254l-2.02-2.02,2.02-2.02A3.011,3.011,0,0,0,133.9,121.325Zm-1.418,2.836-2.729,2.729a1,1,0,0,0,0,1.418l2.729,2.729a1,1,0,0,1-1.418,1.418l-2.729-2.729a1,1,0,0,0-1.418,0l-2.729,2.729a1,1,0,0,1-1.418-1.418l2.729-2.729a1,1,0,0,0,0-1.418l-2.729-2.729a1,1,0,0,1,1.418-1.418l2.729,2.729a1,1,0,0,0,1.418,0l2.729-2.729a1,1,0,1,1,1.418,1.418Z" transform="translate(-112.424 -112.394)" fill="#fff6d6"/>
    </g>
  </g>
</svg>
