<svg xmlns="http://www.w3.org/2000/svg" width="32.754" height="42.084" viewBox="0 0 32.754 42.084"><path d="M61.747,9.811,57.6,7.84l.215-.453a3.985,3.985,0,0,0-1.888-5.3L52.35.386a3.98,3.98,0,0,0-5.3,1.888l-.215.453L42.682.756a4.365,4.365,0,0,0-5.809,2.068L35.811,5.061a1.482,1.482,0,0,0,.7,1.974l11,5.223H32.963a1.482,1.482,0,0,0-1.477,1.6l1.947,23.368a5.323,5.323,0,0,0,5.273,4.852H49.6a5.323,5.323,0,0,0,5.273-4.852L56.6,16.574l4.179,1.985a1.481,1.481,0,0,0,1.974-.7l1.062-2.236A4.366,4.366,0,0,0,61.747,9.811ZM49.724,3.546a1.016,1.016,0,0,1,1.354-.482l3.574,1.7a1.018,1.018,0,0,1,.482,1.355l-.215.453L49.509,4Zm2.2,33.439a2.342,2.342,0,0,1-2.32,2.134h-10.9a2.342,2.342,0,0,1-2.32-2.134L34.574,15.221H53.738Zm9.213-22.637-.426.9L39.124,4.993l.427-.9a1.4,1.4,0,0,1,1.86-.662l19.064,9.055A1.4,1.4,0,0,1,61.137,14.348Z" transform="translate(-31.481 0)"/></svg>