<svg xmlns="http://www.w3.org/2000/svg" width="39.815" height="42.031" viewBox="0 0 39.815 42.031"><g transform="translate(-104.988 -121.395)"><g transform="translate(104.988 121.395)"><g transform="translate(0 0)"><path d="M1360.941,3445.958a16.9,16.9,0,0,0-2.959-1.263l-1.054,1.2,5.993,3.592,1.054-1.2A13.3,13.3,0,0,0,1360.941,3445.958Zm-4.691.7-1.054,1.2,5.993,3.592,1.054-1.2Zm-1.822,2.068-14.224,16.145,3.258.873,13.733-15.366Zm3.351,2.04-13.657,15.334,1.848,2.394,14.451-16.177Zm-17.94,14.8-1.546,6.448,6.831-3.108-1.939-2.386Z" transform="translate(-1324.16 -3444.694)"/><path d="M1137.663,3481.1c-3.3,0-5.975,2.2-5.975,4.928v30.14c0,2.726,2.67,4.907,5.975,4.907h24.413c3.3,0,5.975-2.181,5.975-4.907v-23.584l-3.641,4.061v18.38c0,1.679-1.631,3.046-3.667,3.046H1139c-2.036,0-3.667-1.366-3.667-3.046v-27.878c0-1.679,1.631-3.025,3.667-3.025h17.337l2.332-3.025Z" transform="translate(-1131.688 -3479.048)"/></g></g></g></svg>