<svg xmlns="http://www.w3.org/2000/svg" width="33.467" height="50.095" viewBox="0 0 33.467 50.095">
  <g id="logout" transform="translate(0 0)">
    <path id="Path_24" data-name="Path 24" d="M52.45,28.768l-5-5a.967.967,0,1,0-1.367,1.367L49.4,28.452H35.267v2H49.4l-3.316,3.316a.967.967,0,1,0,1.367,1.367l5-5a.967.967,0,0,0,0-1.367Z" transform="translate(-19.267 -6.305)" fill="#db8f00"/>
    <path id="Path_25" data-name="Path 25" d="M32.533,31.417a.765.765,0,0,0-.733.794v8.567c0,.828-.609,1.755-1.425,1.755H25.933V7.928L25.019,7.5,13.327,2.129l-.191-.089H30.375A1.48,1.48,0,0,1,31.8,3.59V15.538a.736.736,0,1,0,1.467,0V3.59A3.025,3.025,0,0,0,30.375.452H12a.753.753,0,0,0-.72.724l-.013-.006V43.788l12.6,5.8,2.064.958V44.12h4.442c1.729,0,2.892-1.728,2.892-3.343V32.211A.765.765,0,0,0,32.533,31.417Zm-8.067-22.4V48.09L12.733,42.71V3.628L24.46,9.006l.007,0Z" transform="translate(-11.267 -0.452)" fill="#fff6d6"/>
  </g>
</svg>
