<svg xmlns="http://www.w3.org/2000/svg" xmlns:xlink="http://www.w3.org/1999/xlink" width="127.074" height="78" viewBox="0 0 127.074 78"><defs><linearGradient id="a" x1="0.5" x2="0.5" y2="1" gradientUnits="objectBoundingBox"><stop offset="0" stop-color="#0d3955"/><stop offset="1" stop-color="#030b11"/></linearGradient></defs><g transform="translate(90 55)" fill="#fff6d6" stroke="#707070" stroke-width="1"><circle cx="11.5" cy="11.5" r="11.5" stroke="none"/><circle cx="11.5" cy="11.5" r="11" fill="none"/></g><g transform="translate(12 55)" fill="#fff6d6" stroke="#707070" stroke-width="1"><circle cx="11.5" cy="11.5" r="11.5" stroke="none"/><circle cx="11.5" cy="11.5" r="11" fill="none"/></g><g transform="translate(0 54)" fill="#db8f00" stroke="#707070" stroke-width="1"><rect width="127" height="3" stroke="none"/><rect x="0.5" y="0.5" width="126" height="2" fill="none"/></g><g fill="#fff6d6" stroke="#707070" stroke-width="1"><rect width="84" height="54" stroke="none"/><rect x="0.5" y="0.5" width="83" height="53" fill="none"/></g><g transform="translate(83.204 35.201) rotate(-1)" fill="#db8f00" stroke="#707070" stroke-width="1"><rect width="43.556" height="18.398" rx="3" stroke="none"/><rect x="0.5" y="0.5" width="42.556" height="17.398" rx="2.5" fill="none"/></g><rect width="32" height="29" transform="translate(83 11)" fill="#db8f00"/><g transform="translate(17 61)" stroke="#707070" stroke-width="1" fill="url(#a)"><ellipse cx="6.5" cy="6" rx="6.5" ry="6" stroke="none"/><ellipse cx="6.5" cy="6" rx="6" ry="5.5" fill="none"/></g><g transform="translate(95 61)" stroke="#707070" stroke-width="1" fill="url(#a)"><ellipse cx="6.5" cy="6" rx="6.5" ry="6" stroke="none"/><ellipse cx="6.5" cy="6" rx="6" ry="5.5" fill="none"/></g><path d="M0,10.781,2.412,4.665,10.423,0H20.539l5.083,4.665,2.357,6.115" transform="translate(10.266 54.946) rotate(0.974)" fill="none" stroke="#707070" stroke-width="10"/><path d="M0,10.781,2.412,4.665,10.423,0H20.539l5.083,4.665,2.357,6.115" transform="translate(87.24 54.946) rotate(0.974)" fill="none" stroke="#707070" stroke-width="10"/><g transform="translate(87 14)" stroke="#707070" stroke-width="1" fill="url(#a)"><rect width="21" height="15" stroke="none"/><rect x="0.5" y="0.5" width="20" height="14" fill="none"/></g><rect width="5" height="11" transform="translate(90)" fill="#db8f00"/></svg>