<?xml version="1.0" standalone="no"?>
<!DOCTYPE svg PUBLIC "-//W3C//DTD SVG 20010904//EN"
 "http://www.w3.org/TR/2001/REC-SVG-20010904/DTD/svg10.dtd">
<svg version="1.0" xmlns="http://www.w3.org/2000/svg"
 width="1008.000000pt" height="1008.000000pt" viewBox="0 0 1008.000000 1008.000000"
 preserveAspectRatio="xMidYMid meet">
<metadata>
Created by potrace 1.11, written by Peter Selinger 2001-2013
</metadata>
<g transform="translate(0.000000,1008.000000) scale(0.100000,-0.100000)"
fill="#000000" stroke="none">
<path d="M4380 9504 c-7 -8 -19 -13 -26 -10 -8 3 -11 0 -7 -10 4 -12 8 -12 22
-2 14 11 14 11 4 -3 -7 -9 -9 -19 -5 -24 4 -4 -5 0 -20 10 -15 9 -25 22 -21
28 4 6 1 7 -6 3 -9 -6 -9 -12 3 -25 14 -15 14 -18 1 -18 -8 0 -15 5 -15 10 0
6 -8 0 -19 -11 l-18 -22 -11 23 c-6 12 -11 16 -11 9 -1 -10 -6 -10 -23 -2 -22
11 -22 10 -4 -4 10 -9 22 -13 27 -11 4 3 6 -2 5 -11 -1 -9 -11 -21 -22 -26
-18 -9 -18 -9 0 6 18 14 18 16 3 16 -10 0 -22 -10 -27 -22 -8 -21 -9 -22 -10
-3 -2 17 -3 16 -10 -5 -6 -17 -8 -19 -9 -7 -1 14 -5 16 -20 8 -10 -6 -21 -7
-25 -4 -3 3 -6 1 -6 -6 0 -7 -4 -10 -9 -7 -12 8 -21 -18 -16 -44 3 -14 0 -18
-8 -13 -19 12 -30 11 -51 -6 -11 -9 -16 -11 -13 -5 7 12 -40 30 -51 19 -3 -3
1 -5 10 -5 8 0 20 -12 27 -27 9 -23 9 -25 -2 -12 -13 17 -67 23 -67 7 0 -5 -5
-6 -12 -2 -7 4 -8 3 -4 -5 4 -6 11 -9 15 -7 4 3 8 -1 8 -9 0 -13 -4 -13 -26 1
-14 9 -23 13 -19 9 12 -13 -28 -36 -49 -28 -17 7 -17 6 0 -11 23 -23 22 -29
-4 -16 -21 12 -54 -4 -44 -20 3 -5 0 -12 -6 -16 -8 -4 -9 -3 -5 4 4 7 2 12 -5
12 -8 0 -7 5 2 17 9 11 4 10 -15 -5 -15 -12 -33 -19 -40 -15 -6 3 -8 3 -5 -1
7 -7 -17 -35 -56 -66 -11 -9 -16 -10 -11 -2 4 6 3 12 -2 12 -16 0 -22 -13 -12
-25 7 -8 5 -12 -5 -12 -8 0 -12 4 -10 8 6 8 -25 22 -33 14 -3 -3 1 -5 8 -5 7
0 10 -3 7 -7 -4 -3 -1 -13 5 -22 7 -9 2 -7 -11 4 -20 17 -23 17 -18 3 3 -9 0
-19 -7 -21 -9 -4 -12 4 -11 24 1 15 -2 26 -7 23 -5 -3 -7 -13 -6 -22 2 -11 -3
-16 -14 -16 -10 1 -18 -3 -18 -8 0 -6 -8 -4 -17 3 -15 13 -15 11 1 -13 17 -26
17 -26 -3 -21 -12 3 -18 10 -14 16 3 6 1 7 -6 3 -9 -6 -9 -11 -1 -21 9 -11 7
-12 -9 -8 -12 3 -21 10 -21 16 0 6 -3 7 -6 4 -4 -4 -1 -14 7 -23 13 -16 12
-16 -8 -6 -29 16 -41 15 -22 0 8 -7 12 -12 10 -10 -2 1 -14 -6 -25 -15 -20
-17 -20 -17 -7 0 7 9 9 17 4 17 -14 0 -40 -35 -36 -47 3 -7 -5 -11 -16 -10
-12 1 -21 5 -21 10 0 5 7 7 14 4 10 -4 13 -1 10 8 -5 11 -10 12 -25 2 -11 -7
-17 -17 -15 -24 3 -7 0 -15 -6 -19 -6 -4 -8 -3 -5 3 4 6 0 16 -8 23 -13 11
-14 10 -9 -3 10 -26 -4 -39 -29 -26 l-22 12 20 -23 20 -23 -27 17 c-20 13 -28
14 -34 5 -4 -7 -3 -9 4 -5 6 3 13 2 17 -3 6 -10 -27 -7 -44 4 -5 3 -12 1 -16
-5 -4 -6 -11 -7 -17 -4 -7 4 -8 2 -4 -4 4 -7 1 -12 -8 -12 -9 0 -16 -5 -16
-11 0 -5 4 -8 9 -5 10 6 25 -24 16 -32 -3 -3 -5 1 -5 8 0 7 -3 10 -7 7 -3 -4
-13 -1 -21 6 -13 9 -14 9 -8 0 5 -9 0 -13 -13 -14 -12 -1 -27 -2 -33 -3 -7 -1
-18 2 -25 7 -12 9 -12 -2 0 -43 2 -8 2 -12 -1 -7 -5 9 -42 30 -42 23 0 -2 7
-12 16 -20 14 -15 13 -16 -13 -16 -16 0 -35 6 -43 13 -8 6 -6 2 5 -11 18 -22
18 -23 0 -16 -11 5 -16 4 -12 -3 3 -5 0 -10 -8 -10 -11 0 -12 4 -4 13 8 9 4
16 -13 24 -21 10 -21 10 -5 -3 12 -10 14 -17 7 -22 -6 -4 -8 -16 -5 -28 2 -12
2 -16 -1 -9 -3 6 -11 9 -16 6 -6 -4 -8 -2 -5 3 4 6 0 13 -8 17 -8 3 -17 0 -21
-6 -4 -7 -3 -8 4 -4 8 5 12 0 12 -13 0 -11 -5 -23 -12 -27 -8 -5 -9 -2 -5 9 5
13 1 16 -18 15 -13 -1 -23 -6 -22 -11 1 -5 -4 -12 -12 -15 -9 -3 -11 0 -6 8 4
7 -3 5 -17 -4 -14 -9 -28 -14 -31 -11 -4 3 -5 2 -2 -2 3 -3 -3 -13 -13 -21
-11 -9 -8 -9 11 2 15 9 27 13 27 9 0 -5 5 -1 11 7 9 13 10 13 6 0 -2 -8 -10
-15 -17 -15 -7 0 -16 -9 -21 -20 -4 -11 -8 -14 -8 -7 -1 6 -5 11 -10 10 -5 -2
-17 6 -26 17 -16 19 -16 19 -5 -3 7 -13 10 -25 8 -25 -2 -1 -13 -10 -25 -20
-21 -18 -21 -18 -18 0 1 10 8 17 14 15 6 -1 11 2 11 7 0 6 -9 9 -19 8 -11 0
-17 -5 -15 -9 3 -4 -2 -8 -10 -8 -9 0 -16 -5 -16 -11 0 -5 5 -7 10 -4 6 3 10
1 10 -4 0 -6 -6 -11 -12 -11 -9 0 -8 -4 2 -10 9 -6 10 -10 3 -10 -7 0 -17 8
-23 18 -10 15 -11 15 -7 -4 3 -13 -1 -21 -9 -21 -7 0 -10 5 -7 10 3 5 0 7 -8
5 -8 -3 -13 -14 -11 -24 2 -15 1 -16 -7 -4 -5 8 -7 18 -5 22 3 4 0 8 -5 8 -11
0 -15 -19 -12 -50 1 -11 -1 -11 -9 3 -8 12 -16 15 -28 8 -9 -4 -23 -6 -29 -4
-7 3 -13 0 -13 -5 0 -6 13 -9 29 -7 29 4 29 3 13 -16 -17 -20 -27 -26 -17 -10
3 5 1 12 -4 16 -5 3 -14 -3 -20 -12 -6 -10 -11 -13 -11 -7 0 7 -7 15 -16 18
-10 4 -13 2 -7 -7 11 -18 13 -38 2 -31 -5 3 -6 10 -3 16 4 6 1 8 -7 6 -8 -3
-13 -11 -11 -17 2 -9 -3 -9 -17 -1 -31 16 -35 12 -10 -9 22 -18 22 -19 4 -17
-11 2 -26 -2 -34 -8 -8 -6 -15 -10 -15 -8 -1 2 -9 0 -18 -3 -10 -4 -16 -11
-13 -15 3 -4 -3 -7 -13 -6 -9 0 -16 -5 -14 -12 1 -8 -2 -11 -7 -8 -5 4 -11 1
-13 -5 -2 -7 -9 -5 -17 5 -12 14 -12 16 2 11 8 -4 18 -2 22 4 7 12 -22 10 -42
-2 -7 -5 -17 -6 -22 -2 -5 3 -12 1 -16 -5 -4 -6 -11 -7 -17 -4 -7 4 -8 2 -4
-4 4 -7 1 -12 -9 -12 -12 0 -15 -5 -9 -22 6 -21 5 -22 -11 -8 -11 8 -16 10
-12 3 5 -7 -1 -13 -15 -15 -13 -2 -23 -8 -23 -15 0 -6 -3 -14 -7 -18 -3 -4 -5
5 -4 20 2 17 0 23 -7 16 -5 -5 -9 -21 -9 -35 l-1 -25 -19 22 -19 22 10 -22 c7
-14 8 -24 1 -28 -9 -6 -14 1 -12 17 1 3 -6 12 -16 19 -13 10 -15 10 -6 0 7 -7
9 -21 7 -32 -5 -17 -6 -17 -25 4 -11 12 -16 16 -12 8 5 -10 3 -13 -7 -9 -10 4
-15 -1 -16 -14 -2 -19 -1 -19 16 -4 15 13 18 14 18 1 0 -8 -4 -12 -9 -9 -4 3
-8 1 -8 -5 0 -5 -9 -9 -19 -8 -13 1 -18 7 -16 19 2 10 0 16 -5 13 -5 -3 -6
-17 -4 -32 4 -23 3 -25 -11 -13 -8 7 -15 9 -15 5 0 -4 -8 -1 -17 6 -15 11 -16
11 -5 -1 16 -19 15 -43 -2 -37 -7 3 -18 1 -24 -5 -6 -6 -12 -6 -16 1 -4 6 -13
11 -19 11 -7 0 -6 -4 3 -11 12 -8 9 -10 -13 -6 -21 3 -25 2 -16 -9 6 -7 18
-10 27 -7 13 4 12 2 -3 -10 -20 -16 -49 -12 -38 6 4 6 1 7 -6 3 -7 -5 -10 -15
-6 -23 5 -14 3 -14 -12 -2 -15 12 -16 12 -10 -3 4 -13 2 -15 -10 -11 -11 4
-14 2 -9 -5 4 -7 -1 -10 -14 -7 -17 3 -20 0 -16 -18 3 -12 3 -16 0 -9 -3 6
-11 9 -16 6 -7 -4 -8 -2 -4 4 4 7 2 12 -4 12 -6 0 -8 5 -4 12 4 7 3 8 -4 4 -6
-4 -9 -13 -5 -21 3 -8 1 -15 -5 -15 -6 0 -13 6 -15 13 -4 7 -6 6 -6 -5 -1 -9
5 -19 12 -21 9 -4 8 -6 -2 -6 -8 -1 -20 7 -27 17 -12 15 -13 14 -9 -9 4 -20 0
-28 -14 -32 -11 -2 -25 0 -32 7 -9 8 -10 8 -4 -3 6 -11 4 -13 -8 -8 -9 3 -22
0 -29 -7 -7 -6 -25 -11 -40 -11 -15 1 -27 -1 -26 -4 0 -3 -3 -17 -7 -29 -6
-18 -10 -20 -16 -10 -7 10 -9 10 -9 1 0 -7 -4 -13 -10 -13 -5 0 -7 8 -4 18 5
14 4 14 -6 -2 -10 -14 -10 -20 -1 -26 7 -4 -1 -7 -18 -8 -28 -1 -29 1 -16 14
19 19 19 21 1 21 -8 0 -14 -5 -13 -11 1 -6 -5 -10 -13 -8 -12 3 -13 1 -2 -9
16 -18 15 -29 -4 -29 -8 0 -12 5 -9 10 3 6 1 10 -5 10 -6 0 -8 -11 -6 -24 3
-18 1 -23 -10 -19 -8 3 -11 10 -7 16 4 6 1 7 -6 3 -7 -5 -10 -15 -7 -23 3 -8
2 -12 -3 -8 -5 3 -11 2 -14 -2 -2 -5 -3 -3 -1 3 1 6 -8 16 -19 24 -20 12 -21
11 -9 -2 10 -13 10 -17 -3 -22 -8 -3 -15 0 -16 7 0 7 -4 2 -10 -11 -5 -14 -13
-20 -20 -16 -8 5 -9 3 -4 -5 5 -9 11 -9 17 -3 6 6 17 8 26 5 10 -4 13 -2 8 5
-4 7 -2 12 3 12 17 0 13 -18 -6 -28 -10 -5 -26 -8 -35 -7 -10 2 -18 0 -18 -5
0 -4 -9 -6 -20 -3 -11 3 -17 10 -13 17 4 6 -1 5 -10 -3 -15 -12 -15 -31 -1
-31 3 0 2 5 -2 12 -4 7 -3 8 4 4 6 -4 8 -14 5 -22 -5 -13 -7 -13 -14 -2 -7 11
-11 10 -18 -2 -5 -8 -7 -18 -5 -22 3 -4 0 -8 -6 -8 -8 0 -9 7 -5 18 13 33 16
47 4 25 -7 -13 -20 -23 -30 -23 -10 0 -20 -4 -24 -9 -3 -6 3 -8 13 -6 11 2 19
-3 19 -11 0 -10 -4 -11 -11 -4 -7 7 -18 3 -35 -13 -13 -12 -22 -17 -18 -12 3
6 2 17 -4 25 -6 11 -9 12 -9 2 0 -7 -4 -10 -10 -7 -6 4 -7 -1 -3 -12 6 -16 5
-16 -10 -4 -15 12 -17 12 -11 -2 8 -21 -3 -37 -21 -31 -8 4 -12 10 -9 15 3 5
-2 6 -10 3 -19 -7 -20 -15 -6 -32 7 -8 7 -9 -1 -3 -22 18 -55 -2 -50 -31 0 -5
-4 -8 -9 -8 -17 0 -11 18 15 46 29 32 29 31 11 31 -8 0 -14 -5 -13 -11 1 -6
-5 -10 -13 -8 -8 2 -12 0 -8 -3 9 -10 -9 -45 -23 -45 -6 0 -7 5 -3 12 4 7 3 8
-5 4 -9 -6 -9 -11 -1 -21 8 -10 8 -15 -1 -21 -8 -4 -9 -3 -5 4 9 16 -7 15 -22
0 -7 -7 -12 -8 -12 -2 0 6 6 16 12 23 11 10 10 11 -4 6 -10 -4 -18 -13 -18
-20 0 -6 -9 -20 -19 -29 -14 -13 -21 -14 -27 -5 -5 8 -3 10 6 4 9 -6 11 -4 5
5 -5 9 -4 11 3 6 8 -5 10 -1 5 10 -5 15 -7 15 -15 0 -5 -9 -13 -14 -18 -11 -5
3 -12 0 -16 -6 -4 -7 -3 -9 4 -5 6 3 14 1 18 -5 12 -20 -20 -30 -35 -11 -12
16 -13 15 -8 -6 3 -12 1 -20 -3 -17 -5 3 -11 1 -15 -5 -3 -5 -11 -10 -18 -10
-6 0 -2 7 9 16 18 14 18 15 -3 4 -13 -6 -23 -7 -23 -3 0 4 -9 -3 -21 -15 -11
-12 -24 -20 -29 -17 -6 3 -7 -1 -4 -10 5 -11 2 -14 -12 -8 -11 4 -15 3 -10 -5
3 -6 1 -14 -5 -18 -7 -4 -9 -3 -6 3 4 6 0 16 -8 23 -13 11 -14 10 -10 -2 3 -8
-4 -26 -15 -39 -12 -13 -19 -18 -15 -11 3 6 1 12 -4 12 -6 0 -11 -4 -11 -10 0
-5 -5 -10 -11 -10 -5 0 -7 4 -4 10 3 6 -1 7 -9 4 -19 -7 -21 -21 -3 -27 6 -2
-4 -4 -23 -5 -28 -1 -31 1 -17 9 9 6 17 15 17 20 0 6 -7 3 -16 -5 -8 -9 -21
-13 -27 -9 -7 3 -3 -4 8 -17 11 -13 14 -20 6 -15 -11 6 -13 4 -8 -8 4 -12 2
-14 -10 -10 -10 4 -14 2 -10 -4 3 -5 0 -10 -8 -10 -8 0 -12 4 -9 8 2 4 0 10
-6 14 -6 3 -10 -3 -10 -15 0 -16 -4 -20 -16 -16 -10 4 -13 2 -8 -6 5 -8 2 -9
-11 -4 -15 5 -16 4 -5 -9 7 -8 17 -12 23 -8 5 3 7 1 4 -5 -4 -5 -16 -8 -27 -5
-12 3 -20 0 -20 -6 0 -7 5 -9 12 -5 7 5 8 3 4 -5 -5 -7 -14 -10 -22 -7 -7 3
-16 0 -20 -6 -4 -6 -3 -8 2 -5 6 3 15 -3 22 -14 11 -18 11 -18 -6 -8 -14 9
-23 9 -38 0 -18 -12 -18 -12 1 -7 15 4 23 -1 32 -20 10 -21 9 -23 -1 -15 -7 6
-17 7 -21 3 -5 -4 -5 -1 -1 5 5 9 2 11 -9 7 -9 -4 -14 -13 -11 -20 3 -7 2 -16
-3 -18 -4 -3 -7 -18 -6 -33 1 -15 -6 -34 -14 -41 -14 -10 -14 -11 3 -5 15 5
17 3 10 -8 -4 -8 -7 -22 -5 -33 2 -13 -1 -16 -11 -10 -7 4 -3 -4 10 -18 16
-18 20 -27 11 -30 -7 -2 -13 -14 -14 -26 -1 -16 2 -19 9 -12 5 5 14 10 19 10
12 0 -15 -26 -33 -32 -10 -3 -8 -6 8 -10 12 -4 20 -2 17 2 -3 5 0 12 6 16 7 4
9 3 5 -4 -3 -5 -2 -12 4 -14 6 -2 1 -9 -11 -16 -15 -10 -19 -10 -14 -1 5 8 4
10 -3 5 -6 -4 -8 -14 -5 -23 5 -12 3 -14 -8 -8 -8 5 -4 -3 9 -17 16 -18 20
-27 11 -30 -7 -2 -13 -14 -14 -26 -1 -16 2 -19 9 -12 5 5 14 10 19 10 12 0
-15 -26 -33 -32 -10 -3 -8 -6 8 -10 12 -4 20 -2 17 2 -3 5 0 12 6 16 8 4 9 3
5 -4 -4 -7 -1 -12 6 -12 8 0 6 -5 -5 -11 -9 -6 -14 -15 -11 -21 4 -7 2 -8 -5
-4 -6 4 -9 12 -6 17 10 15 -2 10 -16 -8 -10 -12 -10 -14 -1 -9 7 4 15 1 18 -8
3 -9 11 -13 17 -9 6 4 7 1 3 -6 -5 -7 -15 -10 -23 -7 -8 3 -11 1 -8 -4 3 -6
13 -10 21 -10 8 0 14 -4 14 -10 0 -6 -10 -6 -27 1 -26 9 -26 8 7 -20 29 -24
33 -32 22 -43 -11 -11 -12 -10 -6 7 7 20 7 20 -14 1 -23 -20 -29 -32 -12 -21
5 3 10 1 10 -5 0 -6 5 -8 11 -4 8 5 9 2 1 -12 -8 -15 -7 -23 6 -37 13 -15 14
-18 2 -15 -11 2 -15 -6 -14 -29 1 -23 -3 -33 -13 -33 -12 0 -12 -3 2 -16 13
-14 14 -19 3 -25 -10 -7 -10 -10 1 -21 12 -11 13 -10 6 2 -7 13 -6 13 6 1 11
-11 11 -14 1 -18 -10 -4 -10 -8 -1 -19 6 -8 8 -14 4 -14 -4 0 -1 -8 6 -17 13
-16 12 -17 -3 -4 -10 7 -15 17 -12 22 3 5 -3 6 -12 2 -11 -4 -13 -8 -6 -11 7
-2 12 -22 12 -44 0 -37 1 -39 18 -27 15 13 16 12 3 -4 -9 -11 -17 -14 -25 -8
-8 7 -12 4 -12 -9 0 -11 2 -17 5 -15 2 3 10 -3 17 -13 9 -13 9 -20 1 -30 -15
-19 -18 -43 -4 -36 7 3 1 -4 -13 -15 -19 -16 -20 -20 -6 -14 15 5 17 3 10 -8
-4 -8 -7 -22 -5 -33 2 -13 -1 -16 -11 -10 -7 4 -3 -4 10 -18 16 -18 20 -27 11
-30 -7 -2 -13 -14 -14 -26 -1 -16 2 -19 9 -12 5 5 14 10 19 10 12 0 -15 -26
-33 -32 -10 -3 -8 -6 8 -10 12 -4 20 -2 17 2 -3 5 0 12 6 16 7 4 9 3 5 -4 -3
-5 -2 -12 4 -14 6 -2 1 -9 -11 -16 -15 -10 -19 -10 -14 -1 5 8 4 10 -3 5 -6
-4 -8 -14 -5 -23 5 -12 3 -14 -8 -8 -8 5 -4 -3 9 -17 16 -18 20 -27 11 -30 -7
-2 -13 -14 -14 -26 -1 -16 2 -19 9 -12 5 5 14 10 19 10 12 0 -15 -26 -33 -32
-10 -3 -8 -6 8 -10 12 -4 20 -2 17 2 -3 5 0 12 6 16 8 4 9 3 5 -4 -4 -7 -1
-12 6 -12 8 0 6 -5 -5 -11 -9 -6 -14 -15 -11 -21 4 -7 2 -8 -5 -4 -6 4 -9 12
-6 17 10 15 -2 10 -16 -8 -10 -12 -10 -14 -1 -9 7 4 15 1 18 -8 3 -9 11 -13
17 -9 6 4 7 1 3 -6 -5 -7 -15 -10 -23 -7 -8 3 -11 1 -8 -4 3 -6 13 -10 21 -10
8 0 14 -4 14 -10 0 -6 -10 -6 -27 1 -26 9 -26 8 7 -20 29 -24 33 -32 22 -43
-11 -11 -12 -10 -6 7 7 20 7 20 -14 1 -23 -20 -29 -32 -12 -21 6 3 10 1 10 -5
0 -6 5 -8 11 -4 8 5 9 2 1 -12 -8 -15 -7 -23 6 -37 13 -15 14 -18 2 -15 -11 2
-15 -6 -14 -29 1 -23 -3 -33 -13 -33 -12 0 -12 -3 2 -16 13 -14 14 -19 3 -25
-10 -7 -10 -10 1 -21 12 -11 13 -10 6 2 -7 13 -6 13 6 1 11 -11 11 -14 1 -18
-10 -4 -10 -8 -1 -19 6 -8 8 -14 4 -14 -4 0 -1 -8 6 -17 13 -16 12 -17 -3 -4
-10 7 -15 17 -12 22 3 5 -3 6 -12 2 -11 -4 -13 -8 -6 -11 7 -2 12 -22 12 -44
0 -37 1 -39 18 -27 15 13 16 12 3 -4 -9 -11 -17 -14 -25 -8 -8 7 -12 4 -12 -9
0 -11 2 -17 5 -15 2 3 10 -3 17 -13 9 -13 9 -20 1 -30 -15 -19 -18 -43 -4 -36
7 3 1 -4 -13 -15 -19 -16 -20 -20 -6 -14 15 5 17 3 10 -8 -4 -8 -7 -22 -5 -33
2 -13 -1 -16 -11 -10 -7 4 -3 -4 10 -18 16 -18 20 -27 11 -30 -7 -2 -13 -14
-14 -26 -1 -16 2 -19 9 -12 5 5 14 10 19 10 12 0 -15 -26 -33 -32 -10 -3 -8
-6 8 -10 12 -4 20 -2 17 2 -3 5 0 12 6 16 7 4 9 3 5 -4 -3 -5 -2 -12 4 -14 6
-2 1 -9 -11 -16 -15 -10 -19 -10 -14 -1 5 8 4 10 -3 5 -6 -4 -8 -14 -5 -23 5
-12 3 -14 -8 -8 -8 5 -4 -3 9 -17 16 -18 20 -27 11 -30 -7 -2 -13 -14 -14 -26
-1 -16 2 -19 9 -12 5 5 14 10 19 10 12 0 -15 -26 -33 -32 -10 -3 -8 -6 8 -10
12 -4 20 -2 17 2 -3 5 0 12 6 16 8 4 9 3 5 -4 -4 -7 -1 -12 6 -12 8 0 6 -5 -5
-11 -9 -6 -14 -15 -11 -21 4 -7 2 -8 -5 -4 -6 4 -8 13 -4 19 4 7 0 6 -10 -2
-18 -15 -23 -26 -7 -16 6 3 13 -1 16 -9 3 -9 11 -13 17 -9 6 4 7 1 3 -6 -5 -7
-15 -10 -23 -7 -8 3 -11 1 -8 -4 3 -6 13 -10 21 -10 8 0 14 -4 14 -10 0 -6
-10 -6 -28 1 -25 9 -25 8 8 -20 29 -24 33 -32 22 -43 -11 -11 -12 -10 -6 7 7
20 7 20 -14 1 -23 -20 -29 -32 -12 -21 6 3 10 1 10 -5 0 -6 5 -8 11 -4 8 5 9
2 1 -12 -8 -15 -7 -23 6 -37 13 -15 14 -18 2 -15 -11 2 -15 -6 -14 -29 1 -23
-3 -33 -13 -33 -12 0 -12 -3 2 -16 13 -14 14 -19 3 -25 -10 -7 -10 -10 1 -21
12 -11 13 -10 6 2 -7 13 -6 13 6 1 11 -11 11 -14 1 -18 -10 -4 -10 -8 -1 -19
6 -8 8 -14 4 -14 -4 0 -1 -8 6 -17 13 -16 12 -17 -3 -4 -10 7 -15 17 -12 22 3
5 -3 6 -12 2 -11 -4 -13 -8 -6 -11 7 -2 12 -22 12 -44 0 -37 1 -39 18 -27 15
13 16 12 3 -4 -9 -11 -17 -14 -25 -8 -8 7 -12 4 -12 -9 0 -11 2 -17 5 -15 2 3
10 -3 17 -13 9 -13 9 -20 1 -30 -15 -19 -18 -43 -4 -36 7 3 1 -4 -13 -15 -19
-16 -20 -20 -6 -14 15 5 17 3 10 -8 -4 -8 -7 -22 -5 -33 2 -13 -1 -16 -11 -10
-7 4 -3 -4 10 -18 16 -18 20 -27 11 -30 -7 -2 -13 -14 -14 -26 -1 -16 2 -19 9
-12 5 5 14 10 19 10 12 0 -15 -26 -33 -32 -10 -3 -8 -6 8 -10 12 -4 20 -2 17
2 -3 5 0 12 6 16 7 4 9 3 5 -4 -3 -5 -2 -12 4 -14 6 -2 1 -9 -11 -16 -15 -10
-19 -10 -14 -1 5 8 4 10 -3 5 -6 -4 -8 -14 -5 -23 5 -12 3 -14 -8 -8 -8 5 -4
-3 9 -17 16 -18 20 -27 11 -30 -7 -2 -13 -14 -14 -26 -1 -16 2 -19 9 -12 5 5
14 10 19 10 12 0 -15 -26 -33 -32 -10 -3 -8 -6 8 -10 12 -4 20 -2 17 2 -3 5 0
12 6 16 8 4 9 3 5 -4 -4 -7 -1 -12 6 -12 8 0 6 -5 -5 -11 -9 -6 -14 -15 -11
-21 4 -7 2 -8 -5 -4 -6 4 -9 12 -6 17 10 15 -2 10 -16 -8 -10 -12 -10 -14 -1
-9 7 4 15 1 18 -8 3 -9 11 -13 17 -9 6 4 7 1 3 -6 -5 -7 -15 -10 -23 -7 -8 3
-11 1 -8 -4 3 -6 13 -10 21 -10 8 0 14 -4 14 -10 0 -6 -10 -6 -27 1 -26 9 -26
8 7 -20 29 -24 33 -32 22 -43 -11 -11 -12 -10 -6 7 7 20 7 20 -14 1 -23 -20
-29 -32 -12 -21 5 3 10 1 10 -5 0 -6 5 -8 11 -4 8 5 9 2 1 -12 -8 -15 -7 -23
6 -37 13 -15 14 -18 2 -15 -11 2 -15 -6 -14 -30 1 -22 -3 -32 -13 -32 -12 0
-12 -3 2 -16 13 -14 14 -19 3 -25 -10 -7 -10 -10 1 -21 12 -11 13 -10 6 2 -7
13 -6 13 6 1 11 -11 11 -14 1 -18 -10 -4 -10 -8 -1 -19 6 -8 8 -14 4 -14 -4 0
-1 -8 6 -17 13 -16 12 -17 -3 -4 -10 7 -15 17 -12 22 3 5 -3 6 -12 2 -11 -4
-13 -8 -6 -11 7 -2 12 -22 12 -44 0 -37 1 -39 18 -27 15 13 16 12 3 -4 -9 -11
-17 -14 -25 -8 -8 7 -12 4 -12 -9 0 -11 2 -17 5 -15 2 3 10 -3 17 -13 9 -13 9
-20 1 -30 -15 -19 -18 -43 -4 -36 7 3 1 -4 -13 -15 -19 -16 -20 -20 -6 -14 15
5 17 3 10 -8 -4 -8 -7 -22 -5 -33 2 -13 -1 -16 -11 -10 -7 4 -3 -4 10 -18 16
-18 20 -27 11 -30 -7 -2 -13 -14 -14 -26 -1 -16 2 -19 9 -12 5 5 14 10 19 10
12 0 -15 -26 -33 -32 -10 -3 -8 -6 8 -10 12 -4 20 -2 17 2 -3 5 0 12 6 16 7 4
9 3 5 -4 -3 -5 -2 -12 4 -14 6 -2 1 -9 -11 -16 -15 -10 -19 -10 -14 -1 5 8 4
10 -3 5 -6 -4 -8 -14 -5 -23 5 -12 3 -14 -8 -8 -8 5 -4 -3 9 -17 16 -18 20
-27 11 -30 -7 -2 -13 -14 -14 -26 -1 -16 2 -19 9 -12 5 5 14 10 19 10 12 0
-15 -26 -33 -32 -10 -3 -8 -6 8 -10 12 -4 20 -2 17 2 -3 5 0 12 6 16 8 4 9 3
5 -4 -4 -7 -1 -12 6 -12 8 0 6 -5 -5 -11 -9 -6 -14 -15 -11 -21 4 -7 2 -8 -5
-4 -6 4 -9 12 -6 17 10 15 -2 10 -16 -8 -10 -12 -10 -14 -1 -9 7 4 15 1 18 -8
3 -9 11 -13 17 -9 6 4 7 1 3 -6 -5 -7 -15 -10 -23 -7 -8 3 -11 1 -8 -4 3 -6
13 -10 21 -10 8 0 14 -4 14 -10 0 -6 -10 -6 -27 1 -26 9 -26 8 7 -20 29 -24
33 -32 22 -43 -11 -11 -12 -10 -6 7 7 20 7 20 -14 1 -23 -20 -29 -32 -12 -21
6 3 10 1 10 -5 0 -6 5 -8 11 -4 8 5 9 2 1 -12 -8 -15 -7 -23 6 -37 13 -15 14
-18 2 -15 -11 2 -15 -6 -14 -30 1 -22 -3 -32 -13 -32 -12 0 -12 -3 2 -16 13
-14 14 -19 3 -25 -10 -7 -10 -10 1 -21 12 -11 13 -10 6 2 -7 13 -6 13 6 1 11
-11 11 -14 1 -18 -10 -4 -10 -8 -1 -19 6 -8 8 -14 4 -14 -4 0 -1 -8 6 -18 13
-15 12 -16 -3 -3 -10 7 -15 17 -12 22 3 5 -3 6 -12 2 -11 -4 -13 -8 -6 -11 7
-2 12 -22 12 -44 0 -37 1 -39 18 -27 15 13 16 12 3 -4 -9 -11 -17 -14 -25 -8
-8 7 -12 4 -12 -9 0 -11 2 -17 5 -15 2 3 10 -3 17 -13 9 -13 9 -20 1 -30 -15
-19 -18 -43 -4 -36 7 3 1 -4 -13 -15 -19 -16 -20 -20 -6 -14 15 5 17 3 10 -8
-4 -8 -7 -22 -5 -33 2 -13 -1 -16 -11 -10 -7 4 -3 -4 10 -18 16 -18 20 -27 11
-30 -7 -2 -13 -14 -14 -26 -1 -16 2 -19 9 -12 5 5 14 10 19 10 12 0 -15 -26
-33 -32 -10 -3 -8 -6 8 -10 12 -4 20 -2 17 2 -3 5 0 12 6 16 7 4 9 3 5 -4 -3
-5 -2 -12 4 -14 6 -2 1 -9 -11 -16 -15 -10 -19 -10 -14 -1 5 8 4 10 -3 5 -6
-4 -8 -14 -5 -23 5 -12 3 -14 -8 -8 -8 5 -4 -3 9 -17 16 -18 20 -27 11 -30 -7
-2 -13 -14 -14 -26 -1 -16 2 -19 9 -12 5 5 14 10 19 10 12 0 -15 -26 -33 -32
-10 -3 -8 -6 8 -10 12 -4 20 -2 17 2 -3 5 0 12 6 16 8 4 9 3 5 -4 -4 -7 -1
-12 6 -12 8 0 6 -5 -5 -11 -9 -6 -14 -15 -11 -21 4 -7 2 -8 -5 -4 -6 4 -8 13
-4 19 4 7 0 6 -10 -2 -18 -15 -23 -26 -7 -16 6 3 13 -1 16 -9 3 -9 11 -13 17
-9 6 4 7 1 3 -6 -5 -7 -15 -10 -23 -7 -8 3 -11 1 -8 -4 3 -6 13 -10 21 -10 8
0 14 -4 14 -10 0 -6 -10 -6 -27 1 -26 9 -26 8 7 -20 29 -24 33 -32 22 -43 -11
-11 -12 -10 -6 7 7 20 7 20 -14 1 -23 -20 -29 -32 -12 -21 6 3 10 1 10 -5 0
-6 5 -8 11 -4 8 5 9 2 1 -12 -8 -15 -7 -23 6 -37 13 -15 14 -18 2 -15 -11 2
-15 -6 -14 -29 1 -23 -3 -33 -13 -33 -12 0 -12 -3 2 -16 13 -14 14 -19 3 -25
-10 -7 -10 -10 1 -21 12 -11 13 -10 6 2 -7 13 -6 13 6 1 11 -11 11 -14 1 -18
-10 -4 -10 -8 -1 -19 6 -8 8 -14 4 -14 -4 0 -1 -8 6 -17 13 -16 12 -17 -3 -4
-10 7 -15 17 -12 22 3 5 -3 6 -12 2 -11 -4 -13 -8 -6 -11 7 -2 12 -22 12 -44
0 -37 1 -39 17 -27 16 13 17 12 4 -4 -9 -11 -17 -14 -25 -8 -8 7 -12 4 -12 -9
0 -11 2 -17 5 -15 2 3 10 -3 17 -13 9 -13 9 -20 1 -30 -15 -19 -18 -43 -4 -36
7 3 1 -4 -13 -15 -19 -16 -20 -20 -6 -14 15 5 17 3 10 -8 -4 -8 -7 -22 -5 -33
2 -13 -1 -16 -11 -10 -7 4 -3 -4 10 -18 16 -18 20 -27 11 -30 -7 -2 -13 -14
-14 -26 -1 -16 2 -19 9 -12 5 5 14 10 19 10 12 0 -15 -26 -33 -32 -10 -3 -8
-6 8 -10 12 -4 20 -2 17 2 -3 5 0 12 6 16 7 4 9 3 5 -4 -3 -5 -2 -12 4 -14 6
-2 1 -9 -11 -16 -15 -10 -19 -10 -14 -1 5 8 4 10 -3 5 -6 -4 -8 -14 -5 -23 5
-12 3 -14 -8 -8 -8 5 -4 -3 9 -17 16 -18 20 -27 11 -30 -7 -2 -13 -14 -14 -26
-1 -16 2 -19 9 -12 5 5 14 10 19 10 12 0 -15 -26 -33 -32 -10 -3 -8 -6 8 -10
12 -4 20 -2 17 2 -3 5 0 12 6 16 8 4 9 3 5 -4 -4 -7 -1 -12 6 -12 8 -1 7 -4
-3 -10 -12 -7 -16 -22 -15 -50 2 -30 -2 -40 -13 -41 -9 -1 -5 -5 9 -9 24 -8
24 -8 3 -9 -22 -1 -22 -2 -6 -21 18 -21 27 -54 12 -44 -5 3 -7 9 -5 13 3 4 -5
13 -16 20 -20 12 -20 12 -4 -10 9 -13 16 -32 16 -42 0 -17 2 -18 18 -6 15 13
16 12 4 -3 -8 -9 -20 -14 -28 -11 -11 4 -14 -1 -10 -20 2 -14 9 -34 15 -46 7
-11 7 -22 2 -25 -5 -3 -7 -15 -4 -26 3 -12 0 -20 -8 -20 -7 0 -10 -3 -7 -6 4
-3 16 0 28 6 21 11 21 12 3 26 -17 14 -17 14 4 4 25 -12 41 -32 22 -28 -7 2
-14 -6 -16 -17 -3 -16 -2 -17 6 -5 9 13 11 13 11 -2 0 -10 4 -18 9 -18 5 0 8
-11 7 -24 -1 -19 -4 -22 -15 -13 -9 8 -10 12 -2 15 12 4 5 22 -9 22 -11 0 -7
-27 7 -41 6 -6 9 -19 6 -28 -3 -10 -2 -12 4 -5 4 6 17 13 28 16 15 4 21 0 21
-13 0 -12 -4 -15 -10 -9 -6 6 -15 10 -21 10 -5 0 -2 -5 8 -11 9 -6 15 -14 12
-20 -3 -5 1 -6 9 -3 16 6 90 -39 79 -49 -3 -4 2 -7 13 -7 16 0 17 -2 4 -11
-12 -9 -12 -10 3 -5 10 3 21 6 23 6 3 0 2 6 -2 13 -5 9 -4 9 6 0 7 -6 19 -9
26 -6 8 3 14 0 14 -5 0 -6 -9 -9 -20 -7 -11 2 -22 1 -24 -3 -2 -4 33 -7 79 -7
53 0 81 4 77 10 -3 6 2 4 11 -4 11 -8 17 -9 17 -2 0 7 8 8 26 1 32 -12 34 -12
34 1 0 5 -4 8 -8 5 -4 -2 -14 0 -22 5 -11 7 -7 8 14 5 17 -3 37 0 45 7 13 9
12 7 -1 -8 -16 -20 -15 -20 77 -21 63 0 92 3 87 10 -3 6 2 5 11 -3 12 -9 17
-10 17 -2 0 7 4 10 8 7 17 -10 62 -15 57 -5 -4 5 1 9 10 9 9 0 14 -3 12 -8 -3
-4 21 -7 54 -8 32 0 59 3 59 8 0 4 12 3 26 -2 32 -12 34 -12 34 1 0 5 -4 8 -8
5 -4 -2 -14 0 -22 5 -11 7 -7 8 14 5 17 -3 37 0 45 7 13 9 12 7 -1 -8 -16 -20
-15 -20 42 -20 32 0 56 3 53 8 -2 4 3 7 12 7 9 0 14 -3 12 -8 -3 -4 21 -7 54
-8 32 0 59 3 59 8 0 4 12 3 26 -2 32 -12 34 -12 34 1 0 5 -4 8 -8 5 -4 -2 -14
0 -22 5 -11 7 -7 8 14 5 17 -3 37 0 45 7 13 9 12 7 -1 -8 -16 -20 -15 -20 77
-21 63 0 92 3 87 10 -3 6 2 5 11 -3 12 -9 17 -10 17 -2 0 7 4 10 8 7 17 -10
62 -15 57 -5 -4 5 1 9 10 9 9 0 14 -3 12 -8 -3 -4 21 -7 54 -8 32 0 59 3 59 8
0 4 12 3 26 -2 32 -12 34 -12 34 1 0 5 -4 8 -8 5 -4 -2 -14 0 -22 5 -11 7 -7
8 14 5 17 -3 37 0 45 7 13 9 12 7 -1 -8 -16 -20 -15 -20 77 -21 63 0 92 3 87
10 -3 6 2 5 11 -3 12 -9 17 -10 17 -2 0 7 4 10 8 7 17 -10 62 -15 57 -5 -4 5
1 9 10 9 9 0 14 -3 12 -8 -3 -4 21 -7 54 -8 32 0 59 3 59 8 0 4 12 3 26 -2 32
-12 34 -12 34 1 0 5 -4 8 -8 5 -4 -2 -14 0 -22 5 -11 7 -7 8 14 5 17 -3 37 0
45 7 13 9 12 7 -1 -8 -16 -20 -15 -20 42 -20 32 0 56 3 53 7 -2 5 3 8 12 8 9
0 14 -3 12 -8 -3 -4 21 -7 54 -8 32 0 59 3 59 8 0 4 12 3 26 -2 32 -12 34 -12
34 1 0 5 -4 8 -8 5 -4 -2 -14 0 -22 5 -11 7 -7 8 14 5 17 -3 37 0 45 7 13 9
12 7 -1 -8 -16 -20 -15 -20 77 -21 63 0 92 3 87 10 -3 6 2 5 11 -3 12 -9 17
-10 17 -2 0 7 4 10 8 7 17 -10 62 -15 57 -5 -4 5 1 9 10 9 9 0 14 -3 12 -8 -3
-4 21 -7 54 -8 32 0 59 3 59 8 0 4 12 3 26 -2 32 -12 34 -12 34 1 0 5 -4 8 -8
5 -4 -2 -14 0 -22 5 -11 7 -7 8 14 5 17 -3 37 0 45 7 13 9 12 7 -1 -8 -16 -20
-15 -20 77 -21 63 0 92 3 87 10 -3 6 2 5 11 -3 12 -9 17 -10 17 -2 0 7 4 10 8
7 17 -10 62 -15 57 -5 -4 5 1 9 10 9 9 0 14 -3 12 -8 -3 -4 21 -7 54 -8 32 0
59 3 59 8 0 4 12 3 26 -2 32 -12 34 -12 34 1 0 5 -4 8 -8 5 -4 -2 -14 0 -22 5
-11 7 -7 8 14 5 17 -3 37 0 45 7 13 9 12 7 -1 -8 -16 -20 -15 -20 42 -20 32 0
56 3 53 8 -2 4 3 7 12 7 9 0 14 -3 12 -8 -3 -4 21 -7 54 -8 32 0 59 3 59 8 0
4 12 3 26 -2 32 -12 34 -12 34 1 0 5 -4 8 -8 5 -4 -2 -14 0 -22 5 -11 7 -7 8
14 5 17 -3 37 0 45 7 13 9 12 7 -1 -8 -16 -20 -15 -20 77 -21 63 0 92 3 87 10
-3 6 2 5 11 -3 12 -9 17 -10 17 -2 0 7 4 10 8 7 17 -10 62 -15 57 -5 -4 5 1 9
10 9 9 0 14 -3 12 -8 -3 -4 21 -7 54 -8 32 0 59 3 59 8 0 4 12 3 26 -2 32 -12
34 -12 34 1 0 5 -4 8 -8 5 -4 -2 -14 0 -22 5 -11 7 -7 8 14 5 17 -3 37 0 45 7
13 9 12 7 -1 -8 -16 -20 -15 -20 77 -21 63 0 92 3 87 10 -3 6 2 5 11 -3 12 -9
17 -10 17 -2 0 7 4 10 8 7 17 -10 62 -15 57 -5 -4 5 1 9 10 9 9 0 14 -3 12 -8
-3 -4 21 -7 54 -8 32 0 59 3 59 8 0 4 12 3 26 -2 32 -12 34 -12 34 1 0 5 -4 8
-8 5 -4 -2 -14 0 -22 5 -11 7 -7 8 14 5 17 -3 37 0 45 7 13 9 12 7 -1 -8 -16
-20 -15 -20 42 -20 32 0 56 3 53 8 -2 4 3 7 12 7 9 0 14 -3 12 -8 -3 -4 21 -7
54 -8 32 0 59 3 59 8 0 4 12 3 26 -2 32 -12 34 -12 34 1 0 5 -4 8 -8 5 -4 -2
-14 0 -22 5 -11 7 -7 8 14 5 17 -3 37 0 45 7 13 9 12 7 -1 -8 -16 -20 -15 -20
77 -21 63 0 92 3 87 10 -3 6 2 5 11 -3 12 -9 17 -10 17 -2 0 7 4 10 8 7 17
-10 62 -15 57 -5 -4 5 1 9 10 9 9 0 14 -3 12 -8 -3 -4 21 -7 54 -8 32 0 59 3
59 8 0 4 12 3 26 -2 32 -12 34 -12 34 1 0 5 -4 8 -8 5 -4 -2 -14 0 -22 5 -11
7 -7 8 14 5 17 -3 37 0 45 7 13 9 12 7 -1 -8 -16 -20 -15 -20 77 -21 63 0 92
3 87 10 -3 6 2 5 11 -3 12 -9 17 -10 17 -2 0 7 4 10 8 7 17 -10 62 -15 57 -5
-4 5 1 9 10 9 9 0 14 -3 12 -8 -3 -4 21 -7 54 -8 32 0 59 3 59 8 0 4 12 3 26
-2 32 -12 34 -12 34 1 0 5 -4 8 -8 5 -4 -2 -14 0 -22 5 -11 7 -7 8 14 5 17 -3
37 0 45 7 13 9 12 7 -1 -8 -16 -20 -15 -20 42 -20 32 0 56 3 53 8 -2 4 3 7 12
7 9 0 14 -3 12 -8 -3 -4 21 -7 54 -8 32 0 59 3 59 8 0 4 12 3 26 -2 32 -12 34
-12 34 1 0 5 -4 8 -8 5 -4 -2 -14 0 -22 5 -11 7 -7 8 14 5 17 -3 37 0 45 7 13
9 12 7 -1 -8 -16 -20 -15 -20 77 -21 63 0 92 3 87 10 -3 6 2 5 11 -3 12 -9 17
-10 17 -2 0 7 4 10 8 7 17 -10 62 -15 57 -5 -4 5 1 9 10 9 9 0 14 -3 12 -8 -3
-4 21 -7 54 -8 32 0 59 3 59 8 0 4 12 3 26 -2 32 -12 34 -12 34 1 0 5 -4 8 -8
5 -4 -2 -14 0 -22 5 -11 7 -7 8 14 5 17 -3 37 0 45 7 13 9 12 7 -1 -8 -16 -20
-15 -20 77 -21 63 0 92 3 87 10 -3 6 2 5 11 -3 12 -9 17 -10 17 -2 0 7 4 10 8
7 17 -10 62 -15 57 -5 -4 5 1 9 10 9 9 0 14 -3 12 -8 -3 -4 21 -7 54 -8 32 0
59 3 59 8 0 4 12 3 26 -2 32 -12 34 -12 34 1 0 5 -4 8 -8 5 -4 -2 -14 0 -22 5
-11 7 -7 8 14 5 17 -3 37 0 45 7 13 9 12 7 -1 -8 -16 -20 -15 -20 42 -20 32 0
56 3 53 7 -2 5 3 8 12 8 9 0 14 -3 12 -8 -3 -4 21 -7 54 -8 32 0 59 3 59 8 0
4 12 3 26 -2 32 -12 34 -12 34 1 0 5 -4 8 -8 5 -4 -2 -14 0 -22 5 -11 7 -7 8
14 5 17 -3 37 0 45 7 13 9 12 7 -1 -8 -16 -20 -15 -20 77 -21 63 0 92 3 87 10
-3 6 2 5 11 -3 12 -9 17 -10 17 -2 0 7 4 10 8 7 17 -10 62 -15 57 -5 -4 5 1 9
10 9 9 0 14 -3 12 -8 -3 -4 21 -7 54 -8 32 0 59 3 59 8 0 4 12 3 26 -2 32 -12
34 -12 34 1 0 5 -4 8 -8 5 -4 -2 -14 0 -22 5 -11 7 -7 8 14 5 17 -3 37 0 45 7
12 8 11 6 -1 -9 -18 -20 -17 -20 25 -14 23 3 41 11 40 17 -1 6 5 10 15 9 9 0
16 4 15 10 -1 6 3 11 10 11 7 0 17 2 22 3 21 5 36 -1 29 -12 -4 -7 -3 -8 5 -4
9 6 9 11 0 22 -6 8 -9 17 -5 21 3 3 6 1 6 -5 0 -18 27 -14 34 4 6 15 4 15 -11
3 -16 -13 -17 -12 -4 3 14 18 35 19 61 3 13 -8 13 -7 1 8 -7 9 -17 15 -21 12
-5 -3 -12 0 -16 7 -4 7 -4 10 1 6 15 -14 43 11 38 32 -5 18 5 25 30 21 5 -1 6
3 2 9 -6 10 19 43 27 35 3 -3 5 1 5 8 0 8 -6 14 -13 14 -7 0 -10 -5 -7 -10 4
-6 1 -7 -7 -2 -7 5 -11 4 -7 -1 3 -5 -1 -17 -8 -27 -12 -17 -13 -16 -18 2 -3
14 -1 18 10 14 7 -3 13 -2 12 3 -1 5 0 12 1 17 1 4 3 11 4 17 0 5 10 16 21 25
11 9 14 14 8 10 -7 -3 -14 0 -15 7 0 7 -2 18 -2 24 -1 6 -8 20 -16 30 -14 18
-14 18 3 5 15 -12 17 -11 18 15 1 16 1 35 0 41 -1 7 4 13 11 13 7 1 2 7 -12
16 -19 11 -21 14 -6 12 10 -2 21 3 24 11 3 10 -2 11 -18 6 -16 -5 -21 -4 -18
6 3 8 13 13 23 11 14 -3 15 -1 4 11 -8 8 -16 13 -19 12 -4 -2 -6 7 -6 20 0 13
4 21 8 19 5 -3 6 -9 4 -13 -3 -4 5 -13 16 -20 20 -12 20 -12 4 10 -9 13 -16
32 -16 42 0 17 -2 18 -17 6 -17 -13 -17 -12 -4 4 14 18 16 18 27 2 11 -14 12
-12 10 17 -2 18 -8 32 -15 30 -6 -1 -11 1 -12 5 0 5 -2 16 -4 25 -2 9 3 22 10
28 15 12 16 -5 2 -27 -5 -8 -3 -13 6 -13 17 0 16 36 -1 67 -9 17 -9 22 1 26 8
4 8 6 -2 6 -11 1 -10 5 5 17 10 8 14 13 8 10 -17 -9 -23 15 -15 60 4 21 5 47
3 57 -3 15 -6 16 -20 5 -15 -12 -16 -11 -3 5 14 18 16 18 27 2 11 -14 12 -12
10 17 -2 18 -8 32 -15 30 -6 -1 -11 1 -12 5 0 5 -2 16 -4 25 -2 9 3 22 10 28
15 12 16 -5 2 -27 -5 -8 -3 -13 6 -13 9 0 13 9 11 28 -1 15 -3 27 -4 27 -1 0
-3 8 -5 18 -2 13 1 17 11 13 9 -3 12 -1 9 5 -4 5 -16 7 -28 4 -12 -2 -16 -2
-9 1 10 5 10 9 0 22 -11 13 -11 14 0 8 22 -13 10 27 -13 42 -19 12 -19 13 3 7
23 -7 28 11 7 28 -6 5 -4 7 5 4 8 -2 14 -14 14 -25 -1 -12 2 -22 6 -22 4 0 7
14 6 30 0 17 -6 30 -12 30 -8 0 -10 9 -6 23 5 20 4 21 -14 7 -18 -14 -18 -14
-5 3 14 18 16 18 27 2 11 -14 12 -12 10 17 -2 18 -8 32 -15 30 -6 -1 -11 1
-12 5 0 5 -2 16 -4 25 -2 9 3 22 10 28 15 12 16 -5 2 -27 -5 -8 -3 -13 6 -13
17 0 16 36 -1 67 -9 17 -9 22 1 26 8 4 8 6 -2 6 -11 1 -10 5 5 17 10 8 14 13
8 10 -17 -9 -23 15 -15 60 4 21 5 47 3 57 -3 15 -6 16 -20 5 -15 -12 -16 -11
-3 5 14 18 16 18 27 2 11 -14 12 -12 10 17 -2 18 -8 32 -15 30 -6 -1 -11 1
-12 5 0 5 -2 16 -4 25 -2 9 3 22 10 28 15 12 16 -5 2 -27 -5 -8 -3 -13 6 -13
9 0 13 9 11 27 -1 16 -3 28 -4 28 -1 0 -3 8 -5 18 -2 13 1 17 11 13 9 -3 12
-1 9 5 -4 5 -16 7 -28 4 -12 -2 -16 -2 -9 1 10 5 10 9 0 22 -11 13 -11 14 0 8
22 -13 10 27 -13 42 -19 12 -19 13 3 7 23 -7 28 11 7 28 -6 5 -4 7 5 4 8 -2
14 -14 14 -25 -1 -12 2 -22 6 -22 4 0 7 13 6 30 -1 28 -12 36 -41 30 -5 -1 -1
8 9 19 11 12 16 22 13 22 -4 1 -11 2 -16 3 -5 0 -13 6 -18 11 -4 6 -4 7 1 3 5
-4 15 -3 23 4 11 9 13 8 11 -2 -2 -7 4 -15 12 -17 13 -4 13 -3 0 6 -8 6 -12
11 -8 11 4 0 3 14 -2 30 -7 25 -6 30 8 31 11 1 7 4 -8 9 -22 7 -22 8 -5 10 11
1 24 2 28 1 5 -1 6 3 2 9 -3 6 -10 8 -15 5 -4 -2 -10 6 -12 20 -3 15 -1 25 7
25 6 0 12 7 12 15 0 11 -4 12 -14 3 -7 -6 -16 -8 -20 -4 -3 3 -2 6 4 6 6 0 13
9 16 20 3 11 1 18 -3 15 -5 -3 -7 3 -5 12 1 10 -7 29 -19 43 -11 13 -14 19 -4
12 20 -16 26 -7 24 41 -1 21 2 41 8 44 5 3 6 1 2 -5 -3 -6 -2 -13 3 -16 14 -9
7 22 -9 37 -10 10 -11 9 -5 -3 6 -10 1 -8 -13 4 -12 11 -22 24 -22 30 0 6 5 3
11 -7 9 -15 13 -16 27 -5 13 11 15 11 7 -2 -4 -8 -4 -12 0 -7 13 11 15 38 3
31 -5 -3 -9 0 -7 7 1 8 1 22 0 33 -1 16 -3 17 -18 5 -17 -13 -17 -12 -4 4 14
18 16 18 27 2 11 -14 12 -12 10 17 -2 18 -8 32 -15 30 -6 -1 -11 1 -12 5 0 5
-2 16 -4 25 -2 9 3 22 10 28 15 12 16 -5 2 -27 -5 -8 -3 -13 6 -13 16 0 16 35
-1 66 -8 16 -8 24 0 32 7 7 8 12 3 12 -6 0 -3 5 5 11 13 9 13 10 -1 6 -12 -4
-16 1 -14 16 0 12 -6 31 -14 42 -15 18 -15 19 0 7 14 -11 17 -9 21 16 5 36 -1
54 -14 46 -7 -4 -8 -2 -4 4 4 6 14 9 24 6 9 -3 6 2 -8 11 -20 12 -21 15 -6 13
10 -2 21 3 24 11 3 10 -2 11 -18 6 -16 -5 -21 -4 -18 6 3 8 13 13 23 11 14 -3
15 -1 4 11 -8 8 -17 13 -20 12 -8 -6 -5 48 4 62 8 13 7 14 -12 17 -5 0 -11 3
-13 6 -2 3 -1 4 1 3 2 -2 10 2 18 9 11 9 13 8 11 -2 -2 -7 4 -15 12 -17 13 -4
13 -3 0 6 -8 6 -12 11 -8 11 4 0 3 14 -2 30 -7 25 -6 30 8 31 11 1 7 4 -8 9
-22 7 -22 8 -5 10 11 1 24 2 28 1 5 -1 6 3 2 9 -3 6 -10 8 -15 5 -4 -2 -10 6
-12 20 -3 15 -1 25 7 25 6 0 12 7 12 15 0 11 -4 12 -14 3 -7 -6 -16 -8 -20 -4
-3 3 -2 6 4 6 6 0 13 9 16 20 3 11 1 18 -3 15 -5 -3 -7 3 -5 12 1 10 -7 29
-19 43 -11 13 -14 19 -5 12 16 -12 29 -7 29 10 0 5 -6 6 -12 2 -9 -5 -9 -2 1
9 7 9 11 18 7 18 -3 1 -10 2 -15 3 -5 0 -13 6 -18 11 -4 6 -4 7 1 3 5 -4 15
-3 23 4 11 9 13 8 11 -2 -2 -7 4 -15 12 -17 13 -4 13 -3 0 6 -8 6 -12 11 -8
11 4 0 3 14 -2 30 -7 25 -6 30 8 31 11 1 7 4 -8 9 -22 7 -22 8 -5 10 11 1 24
2 28 1 5 -1 6 3 2 9 -3 6 -10 8 -15 5 -4 -2 -10 6 -12 20 -3 15 -1 25 7 25 6
0 12 7 12 15 0 11 -4 12 -14 3 -7 -6 -16 -8 -20 -4 -3 3 -2 6 4 6 6 0 13 9 16
20 3 11 1 18 -3 15 -5 -3 -7 3 -5 12 1 10 -7 29 -19 43 -11 13 -14 19 -4 12
20 -16 26 -7 24 41 -1 21 2 41 8 44 5 3 6 1 2 -5 -3 -6 -2 -13 3 -16 14 -9 7
22 -9 37 -10 10 -11 9 -5 -3 6 -10 1 -8 -13 4 -12 11 -22 24 -22 30 0 6 5 3
11 -7 9 -15 13 -16 27 -5 13 11 15 11 7 -2 -4 -8 -4 -12 0 -7 13 11 15 38 3
31 -5 -3 -9 0 -7 7 1 8 1 22 0 33 -1 16 -3 17 -18 5 -17 -13 -17 -12 -4 4 14
18 16 18 27 2 11 -14 12 -12 10 17 -2 18 -8 32 -15 30 -6 -1 -11 1 -12 5 0 5
-2 16 -4 25 -2 9 3 22 10 28 15 12 16 -5 2 -27 -5 -8 -3 -13 6 -13 16 0 16 35
-1 66 -8 16 -8 24 0 32 7 7 8 12 3 12 -6 0 -3 5 5 11 13 9 13 10 -1 6 -12 -4
-16 1 -14 16 0 12 -6 31 -14 42 -15 18 -15 19 0 7 14 -11 17 -9 21 16 5 36 -1
54 -14 46 -7 -4 -8 -2 -4 4 4 6 14 9 24 6 9 -3 6 2 -8 11 -20 12 -21 15 -6 13
10 -2 21 3 24 11 3 10 -2 11 -18 6 -16 -5 -21 -4 -18 6 3 8 13 13 23 11 14 -3
15 -1 4 11 -8 8 -17 13 -20 12 -8 -6 -5 48 4 63 8 12 7 13 -12 16 -5 0 -13 6
-18 11 -4 6 -4 7 1 3 5 -4 15 -3 23 4 11 9 13 8 11 -2 -2 -7 4 -15 12 -17 13
-4 13 -3 0 6 -8 6 -12 11 -8 11 4 0 3 14 -2 30 -7 25 -6 30 8 31 11 1 7 4 -8
9 -22 7 -22 8 -5 10 11 1 24 2 28 1 5 -1 6 3 2 9 -3 6 -10 8 -15 5 -4 -2 -10
6 -12 20 -3 15 -1 25 7 25 6 0 12 7 12 15 0 11 -4 12 -14 3 -7 -6 -16 -8 -20
-4 -3 3 -2 6 4 6 6 0 13 9 16 20 3 11 1 18 -3 15 -5 -3 -7 3 -5 12 1 10 -7 29
-19 43 -11 13 -14 19 -5 12 19 -14 29 -7 29 21 0 17 -2 18 -17 6 -17 -13 -17
-12 -4 4 14 18 16 18 27 2 11 -14 12 -12 10 17 -2 18 -8 32 -15 31 -6 -2 -11
0 -12 5 0 4 -2 15 -4 24 -2 9 3 22 10 28 15 12 16 -5 2 -27 -5 -8 -3 -13 6
-13 17 0 16 36 -1 67 -9 17 -9 22 1 26 8 4 8 6 -2 6 -11 1 -10 5 5 17 10 8 14
13 8 10 -17 -9 -23 15 -15 60 4 21 5 47 3 57 -3 15 -6 16 -20 5 -15 -12 -16
-11 -3 5 14 18 16 18 27 2 11 -14 12 -12 10 17 -2 18 -8 32 -15 31 -6 -2 -11
0 -12 5 0 4 -2 15 -4 24 -2 9 3 22 10 28 15 12 16 -5 2 -27 -5 -8 -3 -13 6
-13 9 0 13 9 11 28 -1 15 -3 27 -4 27 -1 0 -3 8 -5 18 -2 13 1 17 11 13 9 -3
12 -1 9 5 -4 5 -16 7 -28 4 -12 -2 -16 -2 -9 1 10 5 10 9 0 22 -11 13 -11 14
0 8 22 -13 10 27 -13 42 -19 12 -19 13 3 7 23 -7 28 11 7 28 -6 5 -4 7 5 4 8
-2 14 -14 14 -25 -1 -12 2 -22 6 -22 4 0 7 14 6 30 0 17 -6 30 -12 30 -8 0
-10 9 -6 23 5 20 4 21 -14 7 -18 -14 -18 -14 -5 3 14 18 16 18 27 2 11 -14 12
-12 10 17 -2 18 -8 32 -15 31 -6 -2 -11 0 -12 5 0 4 -2 15 -4 24 -2 9 3 22 10
28 15 12 16 -5 2 -27 -5 -8 -3 -13 6 -13 17 0 16 36 -1 67 -9 17 -9 22 1 26 8
4 8 6 -2 6 -11 1 -10 5 5 17 10 8 14 13 8 10 -17 -9 -23 15 -15 60 4 21 5 47
3 57 -3 15 -6 16 -20 5 -15 -12 -16 -11 -3 5 14 18 16 18 27 2 11 -14 12 -12
10 17 -2 18 -8 32 -15 31 -6 -2 -11 0 -12 5 0 4 -2 15 -4 24 -2 9 3 22 10 28
15 12 16 -5 2 -27 -5 -8 -3 -13 6 -13 9 0 13 9 11 28 -1 15 -3 27 -4 27 -1 0
-3 8 -5 18 -2 13 1 17 11 13 9 -3 12 -1 9 5 -4 5 -16 7 -28 4 -12 -2 -16 -2
-9 1 10 5 10 9 0 22 -11 13 -11 14 0 8 22 -13 10 27 -13 42 -19 12 -19 13 3 7
23 -7 28 11 7 28 -6 5 -4 7 5 4 8 -2 14 -14 14 -25 -1 -12 2 -22 6 -22 4 0 7
14 6 30 0 17 -6 30 -12 30 -12 0 -12 76 1 87 4 5 5 3 1 -4 -3 -6 -2 -14 3 -17
14 -9 7 22 -9 37 -10 10 -11 9 -5 -3 6 -10 1 -8 -13 4 -12 11 -22 24 -22 30 0
6 5 3 11 -7 9 -15 13 -16 27 -5 13 11 15 11 7 -2 -4 -8 -4 -12 0 -7 13 11 15
38 3 31 -5 -3 -9 0 -7 7 1 8 1 22 0 33 -1 16 -3 17 -18 5 -17 -13 -17 -12 -4
4 14 18 16 18 27 2 11 -14 12 -12 10 17 -2 18 -8 32 -15 31 -6 -2 -11 0 -12 5
0 4 -2 15 -4 24 -2 9 3 22 10 28 15 12 16 -5 2 -27 -5 -8 -3 -13 6 -13 16 0
16 35 -1 66 -8 16 -8 24 0 32 7 7 8 12 3 12 -6 0 -3 5 5 11 13 9 13 10 -1 6
-12 -4 -16 1 -14 16 0 12 -6 31 -14 42 -15 18 -15 19 0 7 14 -11 17 -9 21 16
5 36 -1 54 -14 46 -7 -4 -8 -2 -4 4 4 6 14 9 24 6 9 -3 6 2 -8 11 -20 12 -21
15 -6 13 10 -2 21 3 24 11 3 10 -2 11 -18 6 -16 -5 -21 -4 -18 6 3 8 13 13 23
11 14 -3 15 -1 4 11 -8 8 -17 13 -20 12 -8 -6 -5 48 4 63 8 12 7 13 -12 16 -5
0 -12 4 -15 9 -3 4 -3 5 1 2 3 -3 12 0 20 7 11 9 13 8 11 -2 -2 -7 4 -15 12
-17 13 -4 13 -3 0 6 -8 6 -12 11 -8 11 4 0 3 14 -2 30 -7 25 -6 30 8 31 11 1
7 4 -8 9 -22 7 -22 8 -5 10 11 1 24 2 28 1 5 -1 6 3 2 9 -3 6 -10 8 -15 5 -4
-2 -10 6 -12 20 -3 15 -1 25 7 25 6 0 12 7 12 15 0 11 -4 12 -14 3 -7 -6 -16
-8 -20 -4 -3 3 -2 6 4 6 6 0 13 9 16 20 3 11 1 18 -3 15 -5 -3 -7 3 -5 12 1
10 -7 29 -19 43 -11 13 -14 19 -5 12 12 -9 18 -9 29 1 10 10 11 9 5 -3 -5 -8
-4 -11 0 -7 12 10 15 38 4 31 -5 -3 -9 0 -9 6 0 6 -4 9 -9 6 -11 -7 -9 13 2
32 5 7 3 12 -3 12 -6 0 -9 4 -5 9 3 5 -3 12 -12 14 -16 4 -17 5 -1 6 20 1 37
-26 33 -51 -2 -10 1 -18 5 -18 12 0 8 53 -5 63 -6 4 -4 11 5 17 11 7 6 8 -17
5 -19 -2 -33 1 -33 7 0 5 7 8 15 5 8 -4 17 -1 21 5 5 7 2 8 -6 3 -10 -6 -12
-4 -7 9 6 14 3 15 -14 5 -11 -6 -23 -8 -27 -5 -3 3 0 6 8 6 10 0 10 4 -1 17
-8 9 -9 14 -2 10 6 -4 13 -4 16 0 2 5 2 1 0 -7 -3 -11 -1 -12 8 -3 15 15 3 34
-17 26 -13 -5 -15 -1 -10 15 4 11 2 23 -4 27 -6 3 -8 11 -5 16 3 5 -2 6 -11 2
-13 -5 -15 -3 -9 8 7 12 6 12 -7 1 -12 -10 -17 -10 -27 1 -6 8 -8 17 -4 20 3
4 0 8 -8 9 -30 3 -35 4 -54 15 -11 6 -16 15 -12 19 4 4 14 -1 22 -12 13 -17
14 -17 15 -1 0 9 -5 17 -11 17 -5 0 -7 5 -3 12 4 7 3 8 -4 4 -6 -4 -20 -2 -31
4 -13 7 -22 7 -26 0 -3 -5 2 -10 12 -11 11 0 13 -3 5 -6 -7 -3 -21 2 -31 11
-11 10 -26 14 -37 10 -15 -5 -16 -4 -5 4 19 14 23 42 5 35 -8 -3 -14 0 -14 6
0 6 -6 11 -12 11 -7 -1 -2 -10 11 -20 13 -11 19 -20 13 -20 -16 0 -62 52 -55
63 3 6 1 7 -6 3 -6 -4 -9 -12 -6 -17 4 -5 -1 -9 -10 -9 -9 0 -14 4 -10 9 3 5
1 12 -4 15 -5 4 -13 1 -17 -5 -4 -8 -3 -9 4 -5 8 5 10 1 5 -9 -4 -13 -8 -14
-13 -4 -5 7 -6 18 -3 26 5 12 -12 17 -54 16 -6 0 -10 8 -8 18 2 10 1 18 -3 18
-22 -3 -32 2 -26 14 4 6 -2 4 -13 -6 -21 -18 -22 -18 -33 5 -11 22 -10 22 4 4
9 -11 16 -15 16 -8 0 6 -10 18 -22 26 -20 14 -25 14 -45 1 -20 -13 -22 -13
-17 0 4 8 11 15 17 15 6 0 7 3 4 7 -4 3 -19 -4 -33 -18 -26 -24 -26 -24 -13
-1 12 19 12 24 -1 32 -22 14 -53 13 -44 -2 4 -7 -2 -4 -14 6 -12 11 -25 16
-29 13 -9 -10 -34 14 -26 26 4 7 -1 8 -13 4 -18 -7 -18 -7 0 8 22 17 14 20
-13 5 -14 -7 -24 -4 -40 11 -12 11 -27 17 -34 13 -7 -5 -5 0 3 11 8 10 10 16
3 12 -6 -4 -15 -2 -18 4 -4 5 -14 8 -22 5 -9 -4 -22 -1 -29 5 -8 6 -14 8 -14
3 0 -5 -11 4 -24 19 -23 27 -25 27 -31 8 -3 -12 -11 -21 -16 -21 -6 0 -7 5 -2
13 12 18 11 69 -1 57 -13 -13 -29 -13 -21 0 4 6 -1 7 -11 3 -14 -5 -12 -8 10
-20 26 -13 27 -33 3 -33 -8 0 -8 3 1 9 10 6 5 11 -17 21 -17 7 -31 19 -31 26
0 8 -5 14 -11 14 -5 0 -8 -4 -4 -9 3 -5 0 -13 -6 -17 -8 -5 -9 -3 -5 5 6 8 2
11 -10 9 -13 -2 -19 3 -19 15 0 25 -24 37 -60 31 -24 -3 -27 -2 -15 7 12 9 11
10 -7 6 -15 -3 -20 -1 -16 9 6 17 -13 19 -21 2 -3 -7 -5 -4 -5 7 2 41 -1 51
-10 37 -9 -16 -20 -14 -39 5 -7 7 -19 13 -25 13 -8 0 -7 -3 2 -9 9 -6 10 -11
2 -15 -6 -4 -11 -2 -11 4 0 6 -4 9 -9 6 -4 -3 -7 6 -5 20 1 14 -1 23 -4 19 -7
-6 -8 -10 -11 -37 -1 -10 -4 -9 -10 1 -5 8 -7 20 -4 28 6 17 -19 17 -36 1 -10
-11 -12 -10 -9 2 2 8 -3 14 -10 12 -8 -1 -11 2 -7 8 8 13 -7 13 -23 0 -6 -6
-10 -7 -7 -3 3 3 -11 17 -30 30 -19 13 -35 28 -35 33 0 6 -10 10 -22 10 l-23
0 25 -21 25 -20 -25 12 c-14 7 -29 12 -35 10 -5 -1 -4 3 3 10 18 19 15 34 -5
18 -11 -9 -14 -10 -9 -2 5 9 -1 12 -21 9 -22 -2 -29 1 -29 15 0 12 4 15 12 9
6 -6 15 -6 19 -2 5 4 5 0 0 -8 -5 -8 -4 -12 0 -7 5 4 10 14 11 23 2 12 -1 13
-12 3 -11 -9 -14 -9 -14 0 0 8 -8 10 -21 6 -14 -5 -19 -3 -15 3 3 6 1 14 -5
18 -8 4 -9 3 -5 -4 4 -7 1 -12 -9 -12 -10 0 -13 -5 -9 -12 4 -7 -7 -2 -24 11
-18 12 -32 28 -32 34 0 7 4 6 10 -3 5 -8 10 -10 10 -5 0 6 7 1 15 -9 8 -11 15
-14 15 -8 0 7 0 14 0 17 0 3 -1 4 -2 3 -2 -1 -13 4 -25 10 -14 8 -24 9 -28 2
-4 -7 -13 -7 -26 0 -11 6 -24 8 -29 5 -6 -4 -9 -3 -8 2 1 4 -5 21 -13 37 -13
24 -17 26 -22 12 -5 -11 -3 -15 5 -10 7 4 8 3 4 -4 -13 -21 -28 -13 -22 11 4
16 -1 26 -15 36 -12 7 -18 8 -14 2 11 -18 -37 -31 -56 -15 -12 11 -18 11 -29
1 -12 -10 -12 -9 -2 5 9 11 10 18 2 23 -5 3 -10 3 -10 -1 0 -3 -7 -1 -15 6 -8
7 -15 18 -15 24 0 7 4 6 9 -2 7 -11 9 -11 14 1 4 12 0 15 -15 12 -30 -6 -33
-12 -17 -32 13 -16 12 -17 -3 -4 -20 15 -24 41 -6 41 6 0 8 3 5 7 -4 3 -16 -2
-26 -11 -11 -10 -26 -16 -33 -13 -8 4 -7 6 5 6 11 1 17 9 17 23 0 21 0 21 -16
2 -11 -13 -17 -15 -20 -6 -3 6 -11 9 -16 6 -7 -4 -8 -2 -4 5 6 9 11 9 22 0 8
-6 14 -7 14 -2 0 15 -48 34 -55 23 -4 -6 -12 -10 -18 -10 -7 0 -6 4 3 11 12 9
11 10 -7 6 -20 -4 -21 -2 -12 14 5 10 7 20 4 20 -3 1 -9 2 -15 3 -5 0 -16 10
-25 21 -13 17 -14 17 -9 2 7 -20 -12 -20 -34 1 -7 6 -19 12 -25 12 -7 0 -6 -4
3 -10 8 -5 11 -10 5 -10 -5 0 -3 -5 5 -10 9 -6 10 -10 3 -10 -7 0 -16 7 -21
16 -6 11 -11 13 -16 5 -4 -6 -13 -11 -19 -11 -7 0 -6 4 3 10 8 5 16 18 16 29
1 11 -3 18 -7 15 -5 -3 -9 1 -9 8 0 10 -2 10 -9 -1 -5 -8 -7 -21 -3 -29 4 -10
1 -13 -7 -8 -7 5 -10 18 -7 31 4 16 1 25 -10 29 -13 5 -14 3 -6 -7 7 -8 7 -18
2 -27 -9 -13 -10 -13 -10 0 0 8 -8 24 -16 35 -11 14 -15 15 -14 5 1 -8 2 -22
1 -30 -1 -13 -3 -13 -10 -1 -5 8 -6 21 -3 30 5 13 3 14 -9 5 -16 -13 -51 -15
-43 -3 2 4 -5 14 -16 22 -11 7 -18 16 -15 18 2 3 -5 11 -17 18 -11 7 -17 8
-14 2 4 -6 -6 -9 -24 -9 -20 1 -26 4 -19 9 7 4 17 5 23 2 5 -3 6 -1 2 6 -8 13
-37 11 -49 -4 -5 -6 -7 -3 -3 8 6 20 -4 22 -23 5 -10 -9 -12 -9 -7 -1 3 6 1
15 -6 20 -13 7 -19 9 -55 16 -9 2 -17 12 -19 21 -2 16 -1 16 15 2 16 -15 20
-15 30 -2 11 13 9 15 -7 11 -12 -2 -26 3 -33 11 -10 13 -15 13 -35 -1 -21 -14
-23 -13 -19 5 2 12 -3 21 -16 25 -11 4 -16 11 -13 17 4 7 2 8 -5 4 -6 -4 -9
-12 -6 -17 4 -5 1 -9 -6 -9 -6 0 -9 8 -6 19 3 15 1 18 -11 14 -11 -5 -13 -3
-7 7 5 9 4 11 -4 6 -8 -6 -9 -12 -2 -20 8 -9 7 -13 -4 -13 -8 0 -12 3 -10 6 2
4 -3 17 -11 31 l-15 25 6 -30 c4 -24 3 -27 -5 -12 -7 10 -16 14 -23 10 -21
-13 -39 -13 -28 1 7 9 7 17 -2 26 -6 8 -2 6 10 -3 16 -14 23 -15 29 -6 4 8 3
10 -5 5 -6 -4 -14 0 -17 9 -4 10 -13 13 -25 10 -11 -4 -19 -3 -18 2 3 19 -2
33 -12 33 -8 0 -8 -4 0 -14 9 -11 8 -15 -5 -20 -9 -4 -19 -4 -22 -1 -3 3 1 5
8 5 19 0 1 16 -29 25 -18 6 -22 4 -15 -6 6 -11 5 -12 -8 -2 -8 7 -18 11 -21 8
-4 -3 -5 -2 -2 1 2 4 0 15 -5 25 -6 9 -7 19 -2 22 8 5 -17 -2 -38 -11 -13 -5
-13 -3 -1 11 12 15 12 17 -4 11 -14 -6 -16 -4 -10 7 4 8 5 11 0 7 -4 -4 -17
-3 -28 3 -15 9 -18 8 -12 -3 5 -7 5 -10 0 -6 -4 4 -14 3 -22 -4 -11 -9 -13 -8
-11 3 2 8 -2 13 -8 12 -6 -1 -11 5 -11 13 0 11 4 11 19 -3 11 -9 18 -11 18 -5
0 7 -5 12 -11 12 -8 0 -7 6 2 18 11 14 11 15 -1 5 -9 -8 -19 -9 -32 -2 -10 5
-18 7 -18 3 0 -3 -7 -1 -15 6 -8 7 -12 16 -9 21 3 5 1 9 -5 9 -5 0 -12 -6 -14
-12 -4 -10 -8 -10 -15 1 -6 9 -19 12 -33 8 -21 -5 -22 -4 -8 6 15 11 15 14 1
27 -14 13 -15 12 -10 -2 4 -10 1 -19 -8 -22 -10 -4 -12 -2 -8 6 5 7 2 9 -8 6
-8 -4 -21 -2 -29 3 -11 6 -11 11 -1 21 9 9 12 8 12 -7 0 -10 3 -16 6 -12 4 3
4 13 0 22 -4 13 -10 14 -26 5 -11 -6 -18 -15 -16 -19 3 -4 -1 -8 -9 -8 -12 0
-12 4 -3 16 7 9 19 22 27 29 9 7 10 12 4 12 -7 0 -15 -4 -18 -10 -3 -5 -15
-10 -26 -10 -11 0 -17 5 -14 10 3 6 1 10 -5 10 -6 0 -8 5 -4 13 5 8 2 8 -9 -2
-15 -12 -21 -9 -19 10 1 4 -7 5 -18 2 -11 -3 -17 -9 -14 -14 3 -5 9 -7 14 -4
5 3 11 1 15 -5 4 -6 11 -8 16 -5 5 4 9 1 9 -4 0 -14 -13 -14 -28 1 -7 7 -12 9
-12 5 0 -4 -10 -2 -22 4 l-21 12 21 11 c22 12 22 12 -9 30 -17 10 -33 15 -36
12 -4 -3 -1 -6 6 -6 7 0 9 -5 5 -12 -4 -6 -3 -8 2 -5 6 3 16 1 24 -5 12 -8 12
-9 -2 -4 -11 3 -18 0 -18 -7 0 -7 -5 -4 -11 5 -5 10 -16 15 -24 12 -8 -4 -15
-1 -15 6 0 6 5 8 11 4 6 -3 3 5 -6 20 -9 14 -22 23 -28 19 -6 -4 -8 0 -4 10 9
23 0 21 -13 -2 -9 -17 -7 -19 10 -16 11 2 20 0 20 -6 0 -5 -3 -9 -7 -10 -5 0
-16 -2 -26 -4 -9 -2 -15 1 -12 5 3 5 -4 15 -15 23 -14 10 -18 20 -14 32 5 13
4 16 -4 11 -7 -4 -12 -14 -12 -22 0 -17 -12 -18 -28 -2 -7 7 -18 13 -25 13
-17 0 -21 19 -5 23 9 2 8 0 -2 -8 -13 -10 -13 -11 0 -7 8 2 22 -2 31 -9 13
-12 16 -12 16 0 0 8 -5 14 -11 13 -6 -1 -10 4 -8 11 1 8 -1 11 -5 9 -5 -3 -21
1 -38 8 -16 7 -24 14 -17 14 6 1 12 6 12 12 0 8 -5 7 -16 -2 -14 -12 -14 -14
0 -24 9 -7 13 -15 9 -18 -8 -9 -44 33 -37 45 3 4 0 7 -8 6 -7 -2 -12 2 -11 8
1 6 -4 11 -11 11 -7 0 -13 -6 -13 -13 0 -7 5 -10 11 -7 6 3 5 0 -1 -7 -16 -18
-25 -8 -26 27 0 15 -2 22 -4 15 -4 -10 -9 -8 -18 5 -13 17 -13 17 -12 -1 1
-10 -5 -21 -13 -23 -12 -4 -12 -3 -1 5 19 14 -4 25 -35 18 -24 -6 -24 -6 -7
12 10 10 22 17 27 14 5 -3 6 1 1 8 -7 11 -10 10 -19 -1 -6 -8 -17 -14 -24 -14
-14 0 -33 25 -27 35 7 12 -33 4 -50 -10 -14 -11 -16 -11 -13 1 2 10 -5 13 -24
12 l-28 -2 27 23 c19 17 22 23 10 23 -9 0 -14 -4 -11 -9 5 -8 -10 -12 -30 -9
-4 1 -14 -4 -22 -10 -19 -16 -18 -4 2 16 14 13 19 14 26 3 8 -10 9 -10 6 2 -5
15 -45 19 -66 6 -6 -4 -12 -3 -12 2 0 5 -20 9 -44 8 -24 -1 -43 -3 -41 -6 2
-4 -5 -11 -15 -18 -14 -9 -21 -9 -26 0 -4 6 -3 8 4 4 6 -3 13 -2 16 3 11 17
-11 21 -24 5z m114 -6 c-3 -4 -9 -8 -15 -8 -5 0 -9 4 -9 8 0 5 7 9 15 9 8 0
12 -4 9 -9z m-33 -25 c13 -16 12 -17 -3 -4 -17 13 -22 21 -14 21 2 0 10 -8 17
-17z m220 -30 c13 -16 12 -17 -3 -4 -10 7 -18 15 -18 17 0 8 8 3 21 -13z
m-511 -64 c0 -5 -4 -8 -9 -4 -5 3 -16 -1 -24 -9 -8 -8 -18 -12 -21 -9 -4 4 4
13 16 20 28 15 38 16 38 2z m705 -40 c-4 -5 -12 -9 -18 -8 -9 0 -8 2 1 6 6 2
9 10 6 15 -4 7 -2 8 5 4 6 -4 9 -12 6 -17z m-887 -56 c-6 -7 -12 -13 -13 -13
-2 0 -5 6 -8 13 -3 7 3 13 14 13 13 0 15 -3 7 -13z m-63 -33 c-3 -5 -12 -10
-18 -10 -7 0 -6 4 3 10 19 12 23 12 15 0z m-71 -28 c3 -5 -1 -9 -9 -9 -8 0
-15 4 -15 9 0 4 4 8 9 8 6 0 12 -4 15 -8z m-69 -31 c-3 -6 -11 -9 -16 -6 -5 4
-13 -4 -18 -17 -6 -13 -10 -17 -10 -10 -1 7 -7 10 -13 7 -7 -4 -2 2 12 13 13
11 28 18 32 16 4 -3 8 0 8 7 0 7 3 10 6 6 3 -3 3 -11 -1 -16z m1635 -127 c0
-8 -19 -13 -24 -6 -3 5 1 9 9 9 8 0 15 -2 15 -3z m73 -17 c4 3 7 1 7 -5 0 -15
-17 -16 -25 -2 -4 6 -15 8 -26 5 -11 -4 -19 -2 -19 5 0 6 5 8 10 5 6 -3 10 -1
10 6 0 8 6 6 18 -4 10 -10 22 -14 25 -10z m102 -65 c-8 -9 -45 -10 -45 -1 0 9
32 17 43 11 5 -2 6 -7 2 -10z m-2170 -2 c3 -6 -1 -7 -9 -4 -18 7 -21 14 -7 14
6 0 13 -4 16 -10z m-222 -67 c-7 -2 -9 -12 -6 -21 4 -14 3 -15 -5 -2 -11 15 5
47 17 34 3 -4 1 -9 -6 -11z m37 -7 c0 -2 -7 -7 -16 -10 -8 -3 -12 -2 -9 4 6
10 25 14 25 6z m2545 -26 c3 -5 1 -10 -4 -10 -6 0 -11 5 -11 10 0 6 2 10 4 10
3 0 8 -4 11 -10z m-2683 -46 c9 -18 8 -18 -5 -2 -8 10 -16 15 -19 12 -4 -3 -9
-1 -12 4 -3 6 1 9 10 8 9 -1 21 -11 26 -22z m2848 -29 c0 -8 -2 -15 -4 -15 -2
0 -6 7 -10 15 -3 8 -1 15 4 15 6 0 10 -7 10 -15z m60 -9 c0 -2 -8 -10 -17 -17
-16 -13 -17 -12 -4 4 13 16 21 21 21 13z m-1743 -31 c0 -8 -4 -12 -9 -9 -5 3
-6 10 -3 15 9 13 12 11 12 -6z m-1396 -38 c-10 -9 -11 -8 -5 6 3 10 9 15 12
12 3 -3 0 -11 -7 -18z m3336 -56 c0 -11 -5 -18 -9 -15 -4 3 -5 11 -1 19 7 21
12 19 10 -4z m-2184 -26 c-3 -9 -8 -14 -10 -11 -3 3 -2 9 2 15 9 16 15 13 8
-4z m-99 -67 c-3 -4 -11 -5 -19 -1 -21 7 -19 12 4 10 11 0 18 -5 15 -9z m2612
-40 c4 4 2 -2 -6 -12 -13 -16 -15 -17 -18 -4 -2 10 -11 14 -25 12 -21 -4 -21
-4 -2 5 11 5 25 5 31 0 6 -5 15 -5 20 -1z m-1231 -58 c3 -5 1 -10 -4 -10 -6 0
-11 5 -11 10 0 6 2 10 4 10 3 0 8 -4 11 -10z m-3059 -55 c0 -27 -11 -33 -19
-11 -4 10 9 36 18 36 1 0 1 -11 1 -25z m-28 -36 c-3 -8 -7 -3 -11 10 -4 17 -3
21 5 13 5 -5 8 -16 6 -23z m4624 -17 c-7 -2 -9 -9 -6 -14 4 -7 2 -8 -4 -4 -6
4 -9 13 -6 21 4 8 11 12 17 8 8 -5 7 -8 -1 -11z m-3392 -16 c0 -2 -8 -10 -17
-17 -16 -13 -17 -12 -4 4 13 16 21 21 21 13z m2155 -44 c-3 -3 -11 0 -18 7 -9
10 -8 11 6 5 10 -3 15 -9 12 -12z m1282 12 c-3 -3 -12 -4 -19 -1 -8 3 -5 6 6
6 11 1 17 -2 13 -5z m-3577 -24 c0 -5 -5 -10 -11 -10 -5 0 -7 5 -4 10 3 6 8
10 11 10 2 0 4 -4 4 -10z m2341 -17 c13 -16 12 -17 -3 -4 -10 7 -18 15 -18 17
0 8 8 3 21 -13z m159 -83 c0 -5 -2 -10 -4 -10 -3 0 -8 5 -11 10 -3 6 -1 10 4
10 6 0 11 -4 11 -10z m100 -14 c0 -3 -4 -8 -10 -11 -5 -3 -10 -1 -10 4 0 6 5
11 10 11 6 0 10 -2 10 -4z m-2945 -55 c3 -5 2 -12 -3 -15 -5 -3 -9 1 -9 9 0
17 3 19 12 6z m-1360 -43 c5 4 5 1 1 -6 -6 -10 -11 -10 -22 -1 -11 9 -14 9
-14 -1 0 -8 -3 -11 -6 -7 -12 12 7 28 20 18 7 -6 17 -7 21 -3z m-88 -30 c2
-17 0 -19 -7 -8 -5 8 -6 18 -4 22 8 12 10 10 11 -14z m33 8 c0 -3 -4 -8 -10
-11 -5 -3 -10 -1 -10 4 0 6 5 11 10 11 6 0 10 -2 10 -4z m4600 -11 c0 -2 -9
-3 -19 -2 -11 0 -18 5 -15 9 4 6 34 0 34 -7z m1315 5 c-3 -5 -14 -10 -23 -9
-14 0 -13 2 3 9 27 11 27 11 20 0z m-5968 -32 c-3 -8 -6 -5 -6 6 -1 11 2 17 5
13 3 -3 4 -12 1 -19z m6086 -43 c-3 -9 -8 -14 -10 -11 -3 3 -2 9 2 15 9 16 15
13 8 -4z m-4898 -13 c-3 -3 -11 0 -18 7 -9 10 -8 11 6 5 10 -3 15 -9 12 -12z
m-78 -27 c0 -8 -4 -12 -9 -9 -5 3 -6 10 -3 15 9 13 12 11 12 -6z m-37 1 c0 -3
-4 -8 -10 -11 -5 -3 -10 -1 -10 4 0 6 5 11 10 11 6 0 10 -2 10 -4z m3797 -21
c0 -8 -4 -12 -9 -9 -5 3 -6 10 -3 15 9 13 12 11 12 -6z m1483 -63 c0 -4 -10
-9 -22 -9 -18 -2 -20 0 -8 7 18 12 30 13 30 2z m-5483 -47 c0 -8 -4 -12 -9 -9
-5 3 -6 10 -3 15 9 13 12 11 12 -6z m4257 6 c3 -4 -4 -17 -17 -27 -22 -19 -22
-19 -4 2 9 11 14 24 10 27 -3 4 -4 7 0 7 3 0 8 -4 11 -9z m1448 -76 c0 -5 -5
-10 -11 -12 -8 -1 -7 0 0 4 8 4 7 8 -2 15 -11 8 -11 9 -1 6 8 -2 14 -8 14 -13z
m78 -29 c0 -8 -7 -16 -15 -20 -12 -4 -13 -2 -2 14 14 24 17 25 17 6z m80 -46
c0 -5 -5 -12 -12 -16 -7 -4 -8 -3 -4 4 4 7 2 12 -3 12 -6 0 -11 4 -11 10 0 5
7 7 15 4 8 -4 15 -10 15 -14z m-7555 -43 c6 -4 1 -7 -10 -5 -13 2 -19 -2 -17
-12 2 -8 0 -12 -4 -8 -4 4 -13 0 -21 -10 -8 -10 -11 -10 -6 -2 20 36 38 59 43
52 3 -4 10 -10 15 -15z m-280 -167 c-3 -5 -12 -10 -18 -10 -7 0 -6 4 3 10 19
12 23 12 15 0z m8249 -28 c2 -4 -5 -9 -17 -9 -17 -2 -19 0 -7 7 18 12 18 12
24 2z m-8362 -110 c-7 -2 -10 -7 -8 -11 3 -4 -1 -8 -9 -8 -10 0 -12 4 -5 12 5
7 7 15 3 19 -4 4 1 4 12 0 11 -5 14 -9 7 -12z m-7 -42 c3 -6 -1 -7 -9 -4 -18
7 -21 14 -7 14 6 0 13 -4 16 -10z m929 -38 c3 -5 -1 -9 -9 -9 -8 0 -12 4 -9 9
3 4 7 8 9 8 2 0 6 -4 9 -8z m6601 -2 c3 -5 1 -10 -4 -10 -6 0 -11 5 -11 10 0
6 2 10 4 10 3 0 8 -4 11 -10z m-7545 -20 c0 -5 -5 -10 -11 -10 -5 0 -7 5 -4
10 3 6 8 10 11 10 2 0 4 -4 4 -10z m0 -40 c-12 -8 -12 -10 -1 -10 8 0 12 -3 8
-6 -9 -9 -28 6 -22 17 4 5 12 9 18 9 7 0 6 -4 -3 -10z m783 -15 c-3 -9 -8 -14
-10 -11 -3 3 -2 9 2 15 9 16 15 13 8 -4z m7642 -33 c-3 -3 -11 0 -18 7 -9 10
-8 11 6 5 10 -3 15 -9 12 -12z m-7755 -48 c0 -8 -19 -13 -24 -6 -3 5 1 9 9 9
8 0 15 -2 15 -3z m7151 -11 c13 -16 12 -17 -3 -4 -10 7 -18 15 -18 17 0 8 8 3
21 -13z m-7821 -53 c-12 -8 -12 -10 -1 -10 8 0 12 -3 8 -6 -9 -9 -28 6 -22 17
4 5 12 9 18 9 7 0 6 -4 -3 -10z m21 -393 c-10 -9 -11 -8 -5 6 3 10 9 15 12 12
3 -3 0 -11 -7 -18z m8404 13 c3 -5 1 -10 -4 -10 -6 0 -11 5 -11 10 0 6 2 10 4
10 3 0 8 -4 11 -10z m32 -187 c0 -8 -6 -9 -17 -3 -10 5 -21 6 -25 2 -5 -4 -6
-2 -2 3 8 15 44 13 44 -2z m-7057 -47 c0 -2 -8 -10 -17 -17 -16 -13 -17 -12
-4 4 13 16 21 21 21 13z m480 0 c0 -2 -8 -10 -17 -17 -16 -13 -17 -12 -4 4 13
16 21 21 21 13z m1760 0 c0 -2 -8 -10 -17 -17 -16 -13 -17 -12 -4 4 13 16 21
21 21 13z m480 0 c0 -2 -8 -10 -17 -17 -16 -13 -17 -12 -4 4 13 16 21 21 21
13z m480 0 c0 -2 -8 -10 -17 -17 -16 -13 -17 -12 -4 4 13 16 21 21 21 13z
m480 0 c0 -2 -8 -10 -17 -17 -16 -13 -17 -12 -4 4 13 16 21 21 21 13z m480 0
c0 -2 -8 -10 -17 -17 -16 -13 -17 -12 -4 4 13 16 21 21 21 13z m480 0 c0 -2
-8 -10 -17 -17 -16 -13 -17 -12 -4 4 13 16 21 21 21 13z m-6015 -15 c3 -5 2
-12 -3 -15 -5 -3 -9 1 -9 9 0 17 3 19 12 6z m1305 -11 c0 -5 -2 -10 -4 -10 -3
0 -8 5 -11 10 -3 6 -1 10 4 10 6 0 11 -4 11 -10z m775 -9 c3 -5 2 -12 -3 -15
-5 -3 -9 1 -9 9 0 17 3 19 12 6z m2240 0 c3 -5 2 -12 -3 -15 -5 -3 -9 1 -9 9
0 17 3 19 12 6z m960 0 c3 -5 2 -12 -3 -15 -5 -3 -9 1 -9 9 0 17 3 19 12 6z
m1930 -11 c-3 -5 -12 -10 -18 -10 -7 0 -6 4 3 10 19 12 23 12 15 0z m-7212
-35 c-3 -9 -8 -14 -10 -11 -3 3 -2 9 2 15 9 16 15 13 8 -4z m1104 -10 c0 -8
-4 -12 -9 -9 -5 3 -6 10 -3 15 9 13 12 11 12 -6z m7303 -35 c0 -5 -5 -10 -11
-10 -5 0 -7 5 -4 10 3 6 8 10 11 10 2 0 4 -4 4 -10z m-8430 -20 c0 -5 -5 -10
-11 -10 -5 0 -7 5 -4 10 3 6 8 10 11 10 2 0 4 -4 4 -10z m7425 -19 c3 -5 2
-12 -3 -15 -5 -3 -9 1 -9 9 0 17 3 19 12 6z m-7425 -21 c-12 -8 -12 -10 -1
-10 8 0 12 -3 8 -6 -9 -9 -28 6 -22 17 4 5 12 9 18 9 7 0 6 -4 -3 -10z m967
-125 c0 -8 -4 -12 -9 -9 -5 3 -6 10 -3 15 9 13 12 11 12 -6z m-967 -35 c-12
-8 -12 -10 -1 -10 8 0 12 -3 8 -6 -9 -9 -28 6 -22 17 4 5 12 9 18 9 7 0 6 -4
-3 -10z m970 0 c0 -5 -2 -10 -4 -10 -3 0 -8 5 -11 10 -3 6 -1 10 4 10 6 0 11
-4 11 -10z m20 -40 c0 -5 -5 -10 -11 -10 -5 0 -7 5 -4 10 3 6 8 10 11 10 2 0
4 -4 4 -10z m6500 0 c0 -5 -5 -10 -11 -10 -5 0 -7 5 -4 10 3 6 8 10 11 10 2 0
4 -4 4 -10z m967 -47 c0 -8 -6 -9 -17 -3 -10 5 -21 6 -25 2 -5 -4 -6 -2 -2 3
8 15 44 13 44 -2z m-7 -57 c0 -2 -6 -9 -14 -15 -11 -9 -16 -9 -22 0 -4 7 -3 9
4 5 6 -3 13 -2 17 4 6 10 15 14 15 6z m-7480 -10 c0 -3 -4 -8 -10 -11 -5 -3
-10 -1 -10 4 0 6 5 11 10 11 6 0 10 -2 10 -4z m7457 -71 c0 -8 -4 -12 -9 -9
-5 3 -6 10 -3 15 9 13 12 11 12 -6z m-6002 -34 c3 -5 2 -12 -3 -15 -5 -3 -9 1
-9 9 0 17 3 19 12 6z m245 -1 c0 -5 -5 -10 -11 -10 -5 0 -7 5 -4 10 3 6 8 10
11 10 2 0 4 -4 4 -10z m235 1 c3 -5 2 -12 -3 -15 -5 -3 -9 1 -9 9 0 17 3 19
12 6z m160 0 c3 -5 2 -12 -3 -15 -5 -3 -9 1 -9 9 0 17 3 19 12 6z m245 -1 c0
-5 -5 -10 -11 -10 -5 0 -7 5 -4 10 3 6 8 10 11 10 2 0 4 -4 4 -10z m235 1 c3
-5 2 -12 -3 -15 -5 -3 -9 1 -9 9 0 17 3 19 12 6z m970 -1 c-3 -5 -12 -10 -18
-10 -7 0 -6 4 3 10 19 12 23 12 15 0z m150 1 c3 -5 2 -12 -3 -15 -5 -3 -9 1
-9 9 0 17 3 19 12 6z m245 -1 c0 -5 -5 -10 -11 -10 -5 0 -7 5 -4 10 3 6 8 10
11 10 2 0 4 -4 4 -10z m235 1 c3 -5 2 -12 -3 -15 -5 -3 -9 1 -9 9 0 17 3 19
12 6z m330 -1 c-3 -5 -12 -10 -18 -10 -7 0 -6 4 3 10 19 12 23 12 15 0z m790
1 c3 -5 2 -12 -3 -15 -5 -3 -9 1 -9 9 0 17 3 19 12 6z m245 -1 c0 -5 -5 -10
-11 -10 -5 0 -7 5 -4 10 3 6 8 10 11 10 2 0 4 -4 4 -10z m235 1 c3 -5 2 -12
-3 -15 -5 -3 -9 1 -9 9 0 17 3 19 12 6z m-5055 -15 c0 -3 -4 -8 -10 -11 -5 -3
-10 -1 -10 4 0 6 5 11 10 11 6 0 10 -2 10 -4z m280 -6 c0 -5 -2 -10 -4 -10 -3
0 -8 5 -11 10 -3 6 -1 10 4 10 6 0 11 -4 11 -10z m40 6 c0 -3 -4 -8 -10 -11
-5 -3 -10 -1 -10 4 0 6 5 11 10 11 6 0 10 -2 10 -4z m280 -6 c0 -5 -2 -10 -4
-10 -3 0 -8 5 -11 10 -3 6 -1 10 4 10 6 0 11 -4 11 -10z m200 6 c0 -3 -4 -8
-10 -11 -5 -3 -10 -1 -10 4 0 6 5 11 10 11 6 0 10 -2 10 -4z m640 0 c0 -3 -4
-8 -10 -11 -5 -3 -10 -1 -10 4 0 6 5 11 10 11 6 0 10 -2 10 -4z m480 0 c0 -3
-4 -8 -10 -11 -5 -3 -10 -1 -10 4 0 6 5 11 10 11 6 0 10 -2 10 -4z m280 -6 c0
-5 -2 -10 -4 -10 -3 0 -8 5 -11 10 -3 6 -1 10 4 10 6 0 11 -4 11 -10z m40 6
c0 -3 -4 -8 -10 -11 -5 -3 -10 -1 -10 4 0 6 5 11 10 11 6 0 10 -2 10 -4z m280
-6 c0 -5 -2 -10 -4 -10 -3 0 -8 5 -11 10 -3 6 -1 10 4 10 6 0 11 -4 11 -10z
m520 6 c0 -3 -4 -8 -10 -11 -5 -3 -10 -1 -10 4 0 6 5 11 10 11 6 0 10 -2 10
-4z m800 0 c0 -3 -4 -8 -10 -11 -5 -3 -10 -1 -10 4 0 6 5 11 10 11 6 0 10 -2
10 -4z m280 -6 c0 -5 -2 -10 -4 -10 -3 0 -8 5 -11 10 -3 6 -1 10 4 10 6 0 11
-4 11 -10z m40 6 c0 -3 -4 -8 -10 -11 -5 -3 -10 -1 -10 4 0 6 5 11 10 11 6 0
10 -2 10 -4z m280 -6 c0 -5 -2 -10 -4 -10 -3 0 -8 5 -11 10 -3 6 -1 10 4 10 6
0 11 -4 11 -10z m200 6 c0 -3 -4 -8 -10 -11 -5 -3 -10 -1 -10 4 0 6 5 11 10
11 6 0 10 -2 10 -4z m-5360 -40 c0 -3 -4 -8 -10 -11 -5 -3 -10 -1 -10 4 0 6 5
11 10 11 6 0 10 -2 10 -4z m-949 -79 c-10 -9 -11 -8 -5 6 3 10 9 15 12 12 3
-3 0 -11 -7 -18z m8436 -14 c0 -8 -6 -9 -17 -3 -10 5 -21 6 -25 2 -5 -4 -6 -2
-2 3 8 15 44 13 44 -2z m-7487 -67 c0 -3 -4 -8 -10 -11 -5 -3 -10 -1 -10 4 0
6 5 11 10 11 6 0 10 -2 10 -4z m6520 -46 c0 -5 -5 -10 -11 -10 -5 0 -7 5 -4
10 3 6 8 10 11 10 2 0 4 -4 4 -10z m-7465 -109 c3 -5 2 -12 -3 -15 -5 -3 -9 1
-9 9 0 17 3 19 12 6z m945 -5 c0 -3 -4 -8 -10 -11 -5 -3 -10 -1 -10 4 0 6 5
11 10 11 6 0 10 -2 10 -4z m2160 -51 c0 -2 -9 -3 -19 -2 -11 0 -18 5 -15 9 4
6 34 0 34 -7z m4360 11 c0 -3 -4 -8 -10 -11 -5 -3 -10 -1 -10 4 0 6 5 11 10
11 6 0 10 -2 10 -4z m-7467 -21 c-3 -9 -8 -14 -10 -11 -3 3 -2 9 2 15 9 16 15
13 8 -4z m8434 -32 c0 -8 -6 -9 -17 -3 -10 5 -21 6 -25 2 -5 -4 -6 -2 -2 3 8
15 44 13 44 -2z m-8457 -33 c0 -5 -5 -10 -11 -10 -5 0 -7 5 -4 10 3 6 8 10 11
10 2 0 4 -4 4 -10z m8450 -24 c0 -2 -6 -9 -14 -15 -11 -9 -16 -9 -22 0 -4 7
-3 9 4 5 6 -3 13 -2 17 4 6 10 15 14 15 6z m-8450 -16 c-12 -8 -12 -10 -1 -10
8 0 12 -3 8 -6 -9 -9 -28 6 -22 17 4 5 12 9 18 9 7 0 6 -4 -3 -10z m970 6 c0
-3 -4 -8 -10 -11 -5 -3 -10 -1 -10 4 0 6 5 11 10 11 6 0 10 -2 10 -4z m7457
-71 c0 -8 -4 -12 -9 -9 -5 3 -6 10 -3 15 9 13 12 11 12 -6z m-5497 -49 c0 -2
-7 -7 -16 -10 -8 -3 -12 -2 -9 4 6 10 25 14 25 6z m-2930 -46 c-12 -8 -12 -10
-1 -10 8 0 12 -3 8 -6 -9 -9 -28 6 -22 17 4 5 12 9 18 9 7 0 6 -4 -3 -10z
m970 6 c0 -3 -4 -8 -10 -11 -5 -3 -10 -1 -10 4 0 6 5 11 10 11 6 0 10 -2 10
-4z m1978 -31 c-3 -3 -9 2 -12 12 -6 14 -5 15 5 6 7 -7 10 -15 7 -18z m4542
-15 c0 -5 -5 -10 -11 -10 -5 0 -7 5 -4 10 3 6 8 10 11 10 2 0 4 -4 4 -10z
m967 -47 c0 -8 -6 -9 -17 -3 -10 5 -21 6 -25 2 -5 -4 -6 -2 -2 3 8 15 44 13
44 -2z m-7473 -59 c3 -8 2 -12 -4 -9 -6 3 -10 10 -10 16 0 14 7 11 14 -7z
m7441 -62 c-3 -3 -11 0 -18 7 -9 10 -8 11 6 5 10 -3 15 -9 12 -12z m-7455 -32
c0 -5 -5 -10 -11 -10 -5 0 -7 5 -4 10 3 6 8 10 11 10 2 0 4 -4 4 -10z m6515
-40 c3 -5 1 -10 -4 -10 -6 0 -11 5 -11 10 0 6 2 10 4 10 3 0 8 -4 11 -10z
m-6515 -40 c0 -5 -2 -10 -4 -10 -3 0 -8 5 -11 10 -3 6 -1 10 4 10 6 0 11 -4
11 -10z m1975 -9 c3 -5 2 -12 -3 -15 -5 -3 -9 1 -9 9 0 17 3 19 12 6z m-1975
-31 c0 -5 -5 -10 -11 -10 -5 0 -7 5 -4 10 3 6 8 10 11 10 2 0 4 -4 4 -10z
m-949 -33 c-10 -9 -11 -8 -5 6 3 10 9 15 12 12 3 -3 0 -11 -7 -18z m3529 -1
c0 -2 -7 -7 -16 -10 -8 -3 -12 -2 -9 4 6 10 25 14 25 6z m1361 -43 c13 -16 12
-17 -3 -4 -10 7 -18 15 -18 17 0 8 8 3 21 -13z m-3941 -3 c0 -5 -2 -10 -4 -10
-3 0 -8 5 -11 10 -3 6 -1 10 4 10 6 0 11 -4 11 -10z m6515 0 c3 -5 1 -10 -4
-10 -6 0 -11 5 -11 10 0 6 2 10 4 10 3 0 8 -4 11 -10z m-2580 -19 c3 -5 2 -12
-3 -15 -5 -3 -9 1 -9 9 0 17 3 19 12 6z m-1365 -57 c0 -8 -19 -13 -24 -6 -3 5
1 9 9 9 8 0 15 -2 15 -3z m1 -51 c13 -16 12 -17 -3 -4 -17 13 -22 21 -14 21 2
0 10 -8 17 -17z m1383 5 c-3 -4 -11 -5 -19 -1 -21 7 -19 12 4 10 11 0 18 -5
15 -9z m-1979 -7 c3 -5 2 -12 -3 -15 -5 -3 -9 1 -9 9 0 17 3 19 12 6z m4540
-31 c3 -5 1 -10 -4 -10 -6 0 -11 5 -11 10 0 6 2 10 4 10 3 0 8 -4 11 -10z
m-6501 -26 c3 -8 2 -12 -4 -9 -6 3 -10 10 -10 16 0 14 7 11 14 -7z m-959 -3
c3 -5 2 -12 -3 -15 -5 -3 -9 1 -9 9 0 17 3 19 12 6z m4886 -48 c13 -16 12 -17
-3 -4 -10 7 -18 15 -18 17 0 8 8 3 21 -13z m-1361 -8 c0 -2 -9 -3 -19 -2 -11
0 -18 5 -15 9 4 6 34 0 34 -7z m-3527 -10 c-3 -9 -8 -14 -10 -11 -3 3 -2 9 2
15 9 16 15 13 8 -4z m8402 -5 c3 -5 1 -10 -4 -10 -6 0 -11 5 -11 10 0 6 2 10
4 10 3 0 8 -4 11 -10z m-7455 -20 c0 -5 -5 -10 -11 -10 -5 0 -7 5 -4 10 3 6 8
10 11 10 2 0 4 -4 4 -10z m3950 6 c0 -2 -8 -10 -17 -17 -16 -13 -17 -12 -4 4
13 16 21 21 21 13z m-1375 -15 c3 -5 2 -12 -3 -15 -5 -3 -9 1 -9 9 0 17 3 19
12 6z m-3545 -31 c0 -5 -5 -10 -11 -10 -5 0 -7 5 -4 10 3 6 8 10 11 10 2 0 4
-4 4 -10z m7485 0 c3 -5 1 -10 -4 -10 -6 0 -11 5 -11 10 0 6 2 10 4 10 3 0 8
-4 11 -10z m-7485 -40 c-12 -8 -12 -10 -1 -10 8 0 12 -3 8 -6 -9 -9 -28 6 -22
17 4 5 12 9 18 9 7 0 6 -4 -3 -10z m970 0 c0 -5 -2 -10 -4 -10 -3 0 -8 5 -11
10 -3 6 -1 10 4 10 6 0 11 -4 11 -10z m2575 -19 c3 -5 2 -12 -3 -15 -5 -3 -9
1 -9 9 0 17 3 19 12 6z m-2575 -21 c0 -5 -5 -10 -11 -10 -5 0 -7 5 -4 10 3 6
8 10 11 10 2 0 4 -4 4 -10z m3954 2 c2 -4 -5 -9 -17 -9 -17 -2 -19 0 -7 7 18
12 18 12 24 2z m-1374 -36 c0 -2 -7 -7 -16 -10 -8 -3 -12 -2 -9 4 6 10 25 14
25 6z m4907 -13 c0 -8 -6 -9 -17 -3 -10 5 -21 6 -25 2 -5 -4 -6 -2 -2 3 8 15
44 13 44 -2z m-3550 -8 c0 -8 -4 -12 -9 -9 -5 3 -6 10 -3 15 9 13 12 11 12 -6z
m-3937 -25 c0 -5 -2 -10 -4 -10 -3 0 -8 5 -11 10 -3 6 -1 10 4 10 6 0 11 -4
11 -10z m6515 0 c3 -5 1 -10 -4 -10 -6 0 -11 5 -11 10 0 6 2 10 4 10 3 0 8 -4
11 -10z m-2581 -30 c-6 -6 -10 -3 -10 10 0 13 4 16 10 10 7 -7 7 -13 0 -20z
m-4904 -10 c-12 -8 -12 -10 -1 -10 8 0 12 -3 8 -6 -9 -9 -28 6 -22 17 4 5 12
9 18 9 7 0 6 -4 -3 -10z m3540 -36 c0 -8 -19 -13 -24 -6 -3 5 1 9 9 9 8 0 15
-2 15 -3z m1 -51 c13 -16 12 -17 -3 -4 -17 13 -22 21 -14 21 2 0 10 -8 17 -17z
m1383 5 c-3 -4 -11 -5 -19 -1 -21 7 -19 12 4 10 11 0 18 -5 15 -9z m3506 -18
c0 -5 -5 -10 -11 -10 -5 0 -7 5 -4 10 3 6 8 10 11 10 2 0 4 -4 4 -10z m-945
-20 c3 -5 1 -10 -4 -10 -6 0 -11 5 -11 10 0 6 2 10 4 10 3 0 8 -4 11 -10z
m-6501 -26 c3 -8 2 -12 -4 -9 -6 3 -10 10 -10 16 0 14 7 11 14 -7z m3927 -51
c13 -16 12 -17 -3 -4 -10 7 -18 15 -18 17 0 8 8 3 21 -13z m-1361 -8 c0 -2 -9
-3 -19 -2 -11 0 -18 5 -15 9 4 6 34 0 34 -7z m4875 -3 c-3 -3 -11 0 -18 7 -9
10 -8 11 6 5 10 -3 15 -9 12 -12z m-7455 -32 c0 -5 -5 -10 -11 -10 -5 0 -7 5
-4 10 3 6 8 10 11 10 2 0 4 -4 4 -10z m3950 6 c0 -2 -8 -10 -17 -17 -16 -13
-17 -12 -4 4 13 16 21 21 21 13z m-1375 -15 c3 -5 2 -12 -3 -15 -5 -3 -9 1 -9
9 0 17 3 19 12 6z m3940 -31 c3 -5 1 -10 -4 -10 -6 0 -11 5 -11 10 0 6 2 10 4
10 3 0 8 -4 11 -10z m-3942 -15 c-3 -9 -8 -14 -10 -11 -3 3 -2 9 2 15 9 16 15
13 8 -4z m-2573 -25 c0 -5 -2 -10 -4 -10 -3 0 -8 5 -11 10 -3 6 -1 10 4 10 6
0 11 -4 11 -10z m0 -40 c0 -5 -5 -10 -11 -10 -5 0 -7 5 -4 10 3 6 8 10 11 10
2 0 4 -4 4 -10z m3954 2 c2 -4 -5 -9 -17 -9 -17 -2 -19 0 -7 7 18 12 18 12 24
2z m-4903 -35 c-10 -9 -11 -8 -5 6 3 10 9 15 12 12 3 -3 0 -11 -7 -18z m3524
14 c-9 -8 -36 -10 -30 -2 2 4 11 8 20 8 8 0 13 -3 10 -6z m1362 -36 c0 -8 -4
-12 -9 -9 -5 3 -6 10 -3 15 9 13 12 11 12 -6z m-1357 -10 c0 -2 -9 -3 -19 -2
-11 0 -18 5 -15 9 4 6 34 0 34 -7z m-2580 -15 c0 -5 -2 -10 -4 -10 -3 0 -8 5
-11 10 -3 6 -1 10 4 10 6 0 11 -4 11 -10z m6515 0 c3 -5 1 -10 -4 -10 -6 0
-11 5 -11 10 0 6 2 10 4 10 3 0 8 -4 11 -10z m-2581 -30 c-6 -6 -10 -3 -10 10
0 13 4 16 10 10 7 -7 7 -13 0 -20z m-1354 -55 c0 -2 -9 -3 -19 -2 -11 0 -18 5
-15 9 4 6 34 0 34 -7z m4875 -3 c-3 -3 -11 0 -18 7 -9 10 -8 11 6 5 10 -3 15
-9 12 -12z m-3501 -34 c-3 -4 -11 -5 -19 -1 -21 7 -19 12 4 10 11 0 18 -5 15
-9z m-1379 -7 c3 -5 2 -12 -3 -15 -5 -3 -9 1 -9 9 0 17 3 19 12 6z m3940 -31
c3 -5 1 -10 -4 -10 -6 0 -11 5 -11 10 0 6 2 10 4 10 3 0 8 -4 11 -10z m-3935
-4 c0 -2 -6 -9 -14 -15 -11 -9 -16 -9 -22 0 -4 7 -3 9 4 5 6 -3 13 -2 17 4 6
10 15 14 15 6z m-2566 -22 c3 -8 2 -12 -4 -9 -6 3 -10 10 -10 16 0 14 7 11 14
-7z m-959 -3 c3 -5 2 -12 -3 -15 -5 -3 -9 1 -9 9 0 17 3 19 12 6z m4860 -11
c3 -5 1 -10 -4 -10 -6 0 -11 5 -11 10 0 6 2 10 4 10 3 0 8 -4 11 -10z m17 -42
c-8 -8 -9 -4 -5 13 4 13 8 18 11 10 2 -7 -1 -18 -6 -23z m-4879 -13 c-3 -9 -8
-14 -10 -11 -3 3 -2 9 2 15 9 16 15 13 8 -4z m947 -25 c0 -5 -5 -10 -11 -10
-5 0 -7 5 -4 10 3 6 8 10 11 10 2 0 4 -4 4 -10z m-970 -40 c0 -5 -5 -10 -11
-10 -5 0 -7 5 -4 10 3 6 8 10 11 10 2 0 4 -4 4 -10z m7485 0 c3 -5 1 -10 -4
-10 -6 0 -11 5 -11 10 0 6 2 10 4 10 3 0 8 -4 11 -10z m-7485 -40 c-12 -8 -12
-10 -1 -10 8 0 12 -3 8 -6 -9 -9 -28 6 -22 17 4 5 12 9 18 9 7 0 6 -4 -3 -10z
m970 0 c0 -5 -2 -10 -4 -10 -3 0 -8 5 -11 10 -3 6 -1 10 4 10 6 0 11 -4 11
-10z m0 -40 c0 -5 -5 -10 -11 -10 -5 0 -7 5 -4 10 3 6 8 10 11 10 2 0 4 -4 4
-10z m0 -80 c0 -5 -2 -10 -4 -10 -3 0 -8 5 -11 10 -3 6 -1 10 4 10 6 0 11 -4
11 -10z m6515 0 c3 -5 1 -10 -4 -10 -6 0 -11 5 -11 10 0 6 2 10 4 10 3 0 8 -4
11 -10z m-7485 -40 c-12 -8 -12 -10 -1 -10 8 0 12 -3 8 -6 -9 -9 -28 6 -22 17
4 5 12 9 18 9 7 0 6 -4 -3 -10z m8425 -60 c3 -5 1 -10 -4 -10 -6 0 -11 5 -11
10 0 6 2 10 4 10 3 0 8 -4 11 -10z m-940 -60 c3 -5 1 -10 -4 -10 -6 0 -11 5
-11 10 0 6 2 10 4 10 3 0 8 -4 11 -10z m-6501 -26 c3 -8 2 -12 -4 -9 -6 3 -10
10 -10 16 0 14 7 11 14 -7z m-14 -94 c0 -5 -5 -10 -11 -10 -5 0 -7 5 -4 10 3
6 8 10 11 10 2 0 4 -4 4 -10z m7487 -7 c0 -8 -6 -9 -17 -3 -10 5 -21 6 -25 2
-5 -4 -6 -2 -2 3 8 15 44 13 44 -2z m-972 -33 c3 -5 1 -10 -4 -10 -6 0 -11 5
-11 10 0 6 2 10 4 10 3 0 8 -4 11 -10z m-6515 -40 c0 -5 -2 -10 -4 -10 -3 0
-8 5 -11 10 -3 6 -1 10 4 10 6 0 11 -4 11 -10z m0 -40 c0 -5 -5 -10 -11 -10
-5 0 -7 5 -4 10 3 6 8 10 11 10 2 0 4 -4 4 -10z m-949 -33 c-10 -9 -11 -8 -5
6 3 10 9 15 12 12 3 -3 0 -11 -7 -18z m8409 -27 c0 -5 -5 -10 -11 -10 -5 0 -7
5 -4 10 3 6 8 10 11 10 2 0 4 -4 4 -10z m-7460 -20 c0 -5 -2 -10 -4 -10 -3 0
-8 5 -11 10 -3 6 -1 10 4 10 6 0 11 -4 11 -10z m6515 0 c3 -5 1 -10 -4 -10 -6
0 -11 5 -11 10 0 6 2 10 4 10 3 0 8 -4 11 -10z m-1010 -60 c-3 -5 -12 -10 -18
-10 -7 0 -6 4 3 10 19 12 23 12 15 0z m1950 -28 c-3 -3 -11 0 -18 7 -9 10 -8
11 6 5 10 -3 15 -9 12 -12z m-1955 -16 c-7 -7 -13 -7 -20 0 -6 6 -3 10 10 10
13 0 16 -4 10 -10z m6 -38 c3 -4 -1 -5 -10 -4 -8 1 -18 5 -22 8 -3 4 1 5 10 4
8 -1 18 -5 22 -8z m1009 -18 c3 -5 1 -10 -4 -10 -6 0 -11 5 -11 10 0 6 2 10 4
10 3 0 8 -4 11 -10z m-1018 -25 c0 -8 -4 -12 -9 -9 -4 3 -8 9 -8 15 0 5 4 9 8
9 5 0 9 -7 9 -15z m-6442 -4 c3 -5 2 -12 -3 -15 -5 -3 -9 1 -9 9 0 17 3 19 12
6z m6450 -31 c-3 -5 -12 -10 -18 -10 -7 0 -6 4 3 10 19 12 23 12 15 0z m-6452
-35 c-3 -9 -8 -14 -10 -11 -3 3 -2 9 2 15 9 16 15 13 8 -4z m6447 -9 c-7 -7
-13 -7 -20 0 -6 6 -3 10 10 10 13 0 16 -4 10 -10z m6 -38 c3 -4 -1 -5 -10 -4
-8 1 -18 5 -22 8 -3 4 1 5 10 4 8 -1 18 -5 22 -8z m-6476 -18 c0 -5 -5 -10
-11 -10 -5 0 -7 5 -4 10 3 6 8 10 11 10 2 0 4 -4 4 -10z m7485 0 c3 -5 1 -10
-4 -10 -6 0 -11 5 -11 10 0 6 2 10 4 10 3 0 8 -4 11 -10z m-7485 -40 c-12 -8
-12 -10 -1 -10 8 0 12 -3 8 -6 -9 -9 -28 6 -22 17 4 5 12 9 18 9 7 0 6 -4 -3
-10z m970 6 c0 -3 -4 -8 -10 -11 -5 -3 -10 -1 -10 4 0 6 5 11 10 11 6 0 10 -2
10 -4z m6516 -8 c3 -4 -1 -5 -10 -4 -8 1 -18 5 -22 8 -3 4 1 5 10 4 8 -1 18
-5 22 -8z m-5491 -18 c-3 -5 -12 -10 -18 -10 -7 0 -6 4 3 10 19 12 23 12 15 0z
m-5 -44 c-7 -7 -13 -7 -20 0 -6 6 -3 10 10 10 13 0 16 -4 10 -10z m6 -38 c3
-4 -1 -5 -10 -4 -8 1 -18 5 -22 8 -3 4 1 5 10 4 8 -1 18 -5 22 -8z m-9 -43 c0
-8 -4 -12 -9 -9 -4 3 -8 9 -8 15 0 5 4 9 8 9 5 0 9 -7 9 -15z m-1987 -15 c-12
-8 -12 -10 -1 -10 8 0 12 -3 8 -6 -9 -9 -28 6 -22 17 4 5 12 9 18 9 7 0 6 -4
-3 -10z m970 6 c0 -3 -4 -8 -10 -11 -5 -3 -10 -1 -10 4 0 6 5 11 10 11 6 0 10
-2 10 -4z m1025 -26 c-3 -5 -12 -10 -18 -10 -7 0 -6 4 3 10 19 12 23 12 15 0z
m5495 -20 c0 -5 -5 -10 -11 -10 -5 0 -7 5 -4 10 3 6 8 10 11 10 2 0 4 -4 4
-10z m-5500 -24 c-7 -7 -13 -7 -20 0 -6 6 -3 10 10 10 13 0 16 -4 10 -10z
m6467 -23 c0 -8 -6 -9 -17 -3 -10 5 -21 6 -25 2 -5 -4 -6 -2 -2 3 8 15 44 13
44 -2z m-6461 -15 c3 -4 -1 -5 -10 -4 -8 1 -18 5 -22 8 -3 4 1 5 10 4 8 -1 18
-5 22 -8z m-1 -38 c3 -6 -1 -7 -9 -4 -18 7 -21 14 -7 14 6 0 13 -4 16 -10z
m6455 -4 c0 -2 -6 -9 -14 -15 -11 -9 -16 -9 -22 0 -4 7 -3 9 4 5 6 -3 13 -2
17 4 6 10 15 14 15 6z m-7480 -10 c0 -3 -4 -8 -10 -11 -5 -3 -10 -1 -10 4 0 6
5 11 10 11 6 0 10 -2 10 -4z m6520 -40 c0 -3 -4 -8 -10 -11 -5 -3 -10 -1 -10
4 0 6 5 11 10 11 6 0 10 -2 10 -4z m937 -31 c0 -8 -4 -12 -9 -9 -5 3 -6 10 -3
15 9 13 12 11 12 -6z m-7457 -89 c0 -3 -4 -8 -10 -11 -5 -3 -10 -1 -10 4 0 6
5 11 10 11 6 0 10 -2 10 -4z m-949 -79 c-10 -9 -11 -8 -5 6 3 10 9 15 12 12 3
-3 0 -11 -7 -18z m8436 -14 c0 -8 -6 -9 -17 -3 -10 5 -21 6 -25 2 -5 -4 -6 -2
-2 3 8 15 44 13 44 -2z m-7487 -67 c0 -3 -4 -8 -10 -11 -5 -3 -10 -1 -10 4 0
6 5 11 10 11 6 0 10 -2 10 -4z m6520 -46 c0 -5 -5 -10 -11 -10 -5 0 -7 5 -4
10 3 6 8 10 11 10 2 0 4 -4 4 -10z m-7465 -109 c3 -5 2 -12 -3 -15 -5 -3 -9 1
-9 9 0 17 3 19 12 6z m945 -5 c0 -3 -4 -8 -10 -11 -5 -3 -10 -1 -10 4 0 6 5
11 10 11 6 0 10 -2 10 -4z m6520 -40 c0 -3 -4 -8 -10 -11 -5 -3 -10 -1 -10 4
0 6 5 11 10 11 6 0 10 -2 10 -4z m-7467 -21 c-3 -9 -8 -14 -10 -11 -3 3 -2 9
2 15 9 16 15 13 8 -4z m8434 -32 c0 -8 -6 -9 -17 -3 -10 5 -21 6 -25 2 -5 -4
-6 -2 -2 3 8 15 44 13 44 -2z m-8457 -33 c0 -5 -5 -10 -11 -10 -5 0 -7 5 -4
10 3 6 8 10 11 10 2 0 4 -4 4 -10z m8450 -24 c0 -2 -6 -9 -14 -15 -11 -9 -16
-9 -22 0 -4 7 -3 9 4 5 6 -3 13 -2 17 4 6 10 15 14 15 6z m-8450 -16 c-12 -8
-12 -10 -1 -10 8 0 12 -3 8 -6 -9 -9 -28 6 -22 17 4 5 12 9 18 9 7 0 6 -4 -3
-10z m970 6 c0 -3 -4 -8 -10 -11 -5 -3 -10 -1 -10 4 0 6 5 11 10 11 6 0 10 -2
10 -4z m1025 -26 c-3 -5 -12 -10 -18 -10 -7 0 -6 4 3 10 19 12 23 12 15 0z
m-5 -44 c-7 -7 -13 -7 -20 0 -6 6 -3 10 10 10 13 0 16 -4 10 -10z m6437 -1 c0
-8 -4 -12 -9 -9 -5 3 -6 10 -3 15 9 13 12 11 12 -6z m-6431 -37 c3 -4 -1 -5
-10 -4 -8 1 -18 5 -22 8 -3 4 1 5 10 4 8 -1 18 -5 22 -8z m-6 -38 c0 -5 -4
-10 -10 -10 -5 0 -10 5 -10 10 0 6 5 10 10 10 6 0 10 -4 10 -10z m-1990 -20
c-12 -8 -12 -10 -1 -10 8 0 12 -3 8 -6 -9 -9 -28 6 -22 17 4 5 12 9 18 9 7 0
6 -4 -3 -10z m970 6 c0 -3 -4 -8 -10 -11 -5 -3 -10 -1 -10 4 0 6 5 11 10 11 6
0 10 -2 10 -4z m1024 -24 c3 -5 -1 -9 -9 -9 -8 0 -12 4 -9 9 3 4 7 8 9 8 2 0
6 -4 9 -8z m5496 -22 c0 -5 -5 -10 -11 -10 -5 0 -7 5 -4 10 3 6 8 10 11 10 2
0 4 -4 4 -10z m-5500 -16 c0 -8 -19 -13 -24 -6 -3 5 1 9 9 9 8 0 15 -2 15 -3z
m6467 -31 c0 -8 -6 -9 -17 -3 -10 5 -21 6 -25 2 -5 -4 -6 -2 -2 3 8 15 44 13
44 -2z m-8432 -52 c3 -5 2 -12 -3 -15 -5 -3 -9 1 -9 9 0 17 3 19 12 6z m-17
-223 c-6 -16 -21 -14 -24 4 -1 11 3 15 12 11 8 -3 13 -10 12 -15z m8416 -24
c3 -8 2 -12 -4 -9 -6 3 -10 10 -10 16 0 14 7 11 14 -7z m-30 -162 c3 -5 -1 -9
-9 -9 -8 0 -12 4 -9 9 3 4 7 8 9 8 2 0 6 -4 9 -8z m-7523 -109 c13 -16 12 -17
-3 -4 -10 7 -18 15 -18 17 0 8 8 3 21 -13z m320 0 c13 -16 12 -17 -3 -4 -17
13 -22 21 -14 21 2 0 10 -8 17 -17z m480 0 c13 -16 12 -17 -3 -4 -10 7 -18 15
-18 17 0 8 8 3 21 -13z m480 0 c13 -16 12 -17 -3 -4 -10 7 -18 15 -18 17 0 8
8 3 21 -13z m320 0 c13 -16 12 -17 -3 -4 -17 13 -22 21 -14 21 2 0 10 -8 17
-17z m480 0 c13 -16 12 -17 -3 -4 -17 13 -22 21 -14 21 2 0 10 -8 17 -17z
m480 0 c13 -16 12 -17 -3 -4 -10 7 -18 15 -18 17 0 8 8 3 21 -13z m320 0 c13
-16 12 -17 -3 -4 -17 13 -22 21 -14 21 2 0 10 -8 17 -17z m480 0 c13 -16 12
-17 -3 -4 -17 13 -22 21 -14 21 2 0 10 -8 17 -17z m480 0 c13 -16 12 -17 -3
-4 -17 13 -22 21 -14 21 2 0 10 -8 17 -17z m320 0 c13 -16 12 -17 -3 -4 -17
13 -22 21 -14 21 2 0 10 -8 17 -17z m480 0 c13 -16 12 -17 -3 -4 -17 13 -22
21 -14 21 2 0 10 -8 17 -17z m480 0 c13 -16 12 -17 -3 -4 -17 13 -22 21 -14
21 2 0 10 -8 17 -17z m320 0 c13 -16 12 -17 -3 -4 -17 13 -22 21 -14 21 2 0
10 -8 17 -17z m480 0 c13 -16 12 -17 -3 -4 -17 13 -22 21 -14 21 2 0 10 -8 17
-17z m480 0 c13 -16 12 -17 -3 -4 -17 13 -22 21 -14 21 2 0 10 -8 17 -17z
m320 0 c13 -16 12 -17 -3 -4 -10 7 -18 15 -18 17 0 8 8 3 21 -13z m480 0 c13
-16 12 -17 -3 -4 -10 7 -18 15 -18 17 0 8 8 3 21 -13z m-7675 -5 c3 -4 -1 -5
-10 -4 -8 1 -18 5 -22 8 -3 4 1 5 10 4 8 -1 18 -5 22 -8z m-48 -23 c-3 -3 -9
2 -12 12 -6 14 -5 15 5 6 7 -7 10 -15 7 -18z m217 15 c4 -6 11 -8 16 -5 5 4 9
2 9 -4 0 -5 -9 -9 -19 -8 -11 0 -18 4 -15 8 2 4 -2 10 -8 12 -9 4 -10 6 -1 6
6 1 15 -4 18 -9z m148 -4 c4 -10 1 -13 -8 -9 -8 3 -12 9 -9 14 7 12 11 11 17
-5z m136 1 c8 -10 7 -14 -4 -14 -8 0 -12 4 -9 8 2 4 -2 10 -8 12 -8 4 -9 6 -2
6 6 1 17 -5 23 -12z m185 -3 c3 -8 2 -12 -4 -9 -6 3 -10 10 -10 16 0 14 7 11
14 -7z m135 3 c8 -10 7 -14 -4 -14 -8 0 -12 4 -9 8 2 4 -2 10 -8 12 -8 4 -9 6
-2 6 6 1 17 -5 23 -12z m196 3 c4 -6 11 -8 16 -5 5 4 9 2 9 -4 0 -5 -9 -9 -19
-8 -11 0 -18 4 -15 8 2 4 -2 10 -8 12 -9 4 -10 6 -1 6 6 1 15 -4 18 -9z m148
-4 c4 -10 1 -13 -8 -9 -8 3 -12 9 -9 14 7 12 11 11 17 -5z m136 1 c8 -10 7
-14 -4 -14 -8 0 -12 4 -9 8 2 4 -2 10 -8 12 -8 4 -9 6 -2 6 6 1 17 -5 23 -12z
m196 3 c4 -6 11 -8 16 -5 5 4 9 2 9 -4 0 -5 -9 -9 -19 -8 -11 0 -18 4 -15 8 2
4 -2 10 -8 12 -9 4 -10 6 -1 6 6 1 15 -4 18 -9z m148 -4 c4 -10 1 -13 -8 -9
-8 3 -12 9 -9 14 7 12 11 11 17 -5z m136 1 c8 -10 7 -14 -4 -14 -8 0 -12 4 -9
8 2 4 -2 10 -8 12 -8 4 -9 6 -2 6 6 1 17 -5 23 -12z m185 -3 c3 -8 2 -12 -4
-9 -6 3 -10 10 -10 16 0 14 7 11 14 -7z m135 3 c8 -10 7 -14 -4 -14 -8 0 -12
4 -9 8 2 4 -2 10 -8 12 -8 4 -9 6 -2 6 6 1 17 -5 23 -12z m196 3 c4 -6 11 -8
16 -5 5 4 9 2 9 -4 0 -5 -9 -9 -19 -8 -11 0 -18 4 -15 8 2 4 -2 10 -8 12 -9 4
-10 6 -1 6 6 1 15 -4 18 -9z m148 -4 c4 -10 1 -13 -8 -9 -8 3 -12 9 -9 14 7
12 11 11 17 -5z m136 1 c8 -10 7 -14 -4 -14 -8 0 -12 4 -9 8 2 4 -2 10 -8 12
-8 4 -9 6 -2 6 6 1 17 -5 23 -12z m196 3 c4 -6 11 -8 16 -5 5 4 9 2 9 -4 0 -5
-9 -9 -19 -8 -11 0 -18 4 -15 8 2 4 -2 10 -8 12 -9 4 -10 6 -1 6 6 1 15 -4 18
-9z m148 -4 c4 -10 1 -13 -8 -9 -8 3 -12 9 -9 14 7 12 11 11 17 -5z m136 1 c8
-10 7 -14 -4 -14 -8 0 -12 4 -9 8 2 4 -2 10 -8 12 -8 4 -9 6 -2 6 6 1 17 -5
23 -12z m185 -3 c3 -8 2 -12 -4 -9 -6 3 -10 10 -10 16 0 14 7 11 14 -7z m135
3 c8 -10 7 -14 -4 -14 -8 0 -12 4 -9 8 2 4 -2 10 -8 12 -8 4 -9 6 -2 6 6 1 17
-5 23 -12z m196 3 c4 -6 11 -8 16 -5 5 4 9 2 9 -4 0 -5 -9 -9 -19 -8 -11 0
-18 4 -15 8 2 4 -2 10 -8 12 -9 4 -10 6 -1 6 6 1 15 -4 18 -9z m148 -4 c4 -10
1 -13 -8 -9 -8 3 -12 9 -9 14 7 12 11 11 17 -5z m136 1 c8 -10 7 -14 -4 -14
-8 0 -12 4 -9 8 2 4 -2 10 -8 12 -8 4 -9 6 -2 6 6 1 17 -5 23 -12z m196 3 c4
-6 11 -8 16 -5 5 4 9 2 9 -4 0 -5 -9 -9 -19 -8 -11 0 -18 4 -15 8 2 4 -2 10
-8 12 -9 4 -10 6 -1 6 6 1 15 -4 18 -9z m148 -4 c4 -10 1 -13 -8 -9 -8 3 -12
9 -9 14 7 12 11 11 17 -5z m136 1 c8 -10 7 -14 -4 -14 -8 0 -12 4 -9 8 2 4 -2
10 -8 12 -8 4 -9 6 -2 6 6 1 17 -5 23 -12z m185 -3 c3 -8 2 -12 -4 -9 -6 3
-10 10 -10 16 0 14 7 11 14 -7z m135 3 c8 -10 7 -14 -4 -14 -8 0 -12 4 -9 8 2
4 -2 10 -8 12 -8 4 -9 6 -2 6 6 1 17 -5 23 -12z m196 3 c4 -6 11 -8 16 -5 5 4
9 2 9 -4 0 -5 -9 -9 -19 -8 -11 0 -18 4 -15 8 2 4 -2 10 -8 12 -9 4 -10 6 -1
6 6 1 15 -4 18 -9z m148 -4 c4 -10 1 -13 -8 -9 -8 3 -12 9 -9 14 7 12 11 11
17 -5z m136 1 c8 -10 7 -14 -4 -14 -8 0 -12 4 -9 8 2 4 -2 10 -8 12 -8 4 -9 6
-2 6 6 1 17 -5 23 -12z m196 3 c4 -6 11 -8 16 -5 5 4 9 2 9 -4 0 -5 -9 -9 -19
-8 -11 0 -18 4 -15 8 2 4 -2 10 -8 12 -9 4 -10 6 -1 6 6 1 15 -4 18 -9z m148
-4 c4 -10 1 -13 -8 -9 -8 3 -12 9 -9 14 7 12 11 11 17 -5z m136 1 c8 -10 7
-14 -4 -14 -8 0 -12 4 -9 8 2 4 -2 10 -8 12 -8 4 -9 6 -2 6 6 1 17 -5 23 -12z
m185 -3 c3 -8 2 -12 -4 -9 -6 3 -10 10 -10 16 0 14 7 11 14 -7z m135 3 c8 -10
7 -14 -4 -14 -8 0 -12 4 -9 8 2 4 -2 10 -8 12 -8 4 -9 6 -2 6 6 1 17 -5 23
-12z m196 3 c4 -6 11 -8 16 -5 5 4 9 2 9 -4 0 -5 -9 -9 -19 -8 -11 0 -18 4
-15 8 2 4 -2 10 -8 12 -9 4 -10 6 -1 6 6 1 15 -4 18 -9z m148 -4 c4 -10 1 -13
-8 -9 -8 3 -12 9 -9 14 7 12 11 11 17 -5z m136 1 c8 -10 7 -14 -4 -14 -8 0
-12 4 -9 8 2 4 -2 10 -8 12 -8 4 -9 6 -2 6 6 1 17 -5 23 -12z m196 3 c4 -6 11
-8 16 -5 5 4 9 2 9 -4 0 -5 -9 -9 -19 -8 -11 0 -18 4 -15 8 2 4 -2 10 -8 12
-9 4 -10 6 -1 6 6 1 15 -4 18 -9z m148 -4 c4 -10 1 -13 -8 -9 -8 3 -12 9 -9
14 7 12 11 11 17 -5z m136 1 c8 -10 7 -14 -4 -14 -8 0 -12 4 -9 8 2 4 -2 10
-8 12 -8 4 -9 6 -2 6 6 1 17 -5 23 -12z m185 -3 c3 -8 2 -12 -4 -9 -6 3 -10
10 -10 16 0 14 7 11 14 -7z m135 3 c8 -10 7 -14 -4 -14 -8 0 -12 4 -9 8 2 4
-2 10 -8 12 -8 4 -9 6 -2 6 6 1 17 -5 23 -12z m196 3 c4 -6 11 -8 16 -5 5 4 9
2 9 -4 0 -5 -9 -9 -19 -8 -11 0 -18 4 -15 8 2 4 -2 10 -8 12 -9 4 -10 6 -1 6
6 1 15 -4 18 -9z m148 -4 c4 -10 1 -13 -8 -9 -8 3 -12 9 -9 14 7 12 11 11 17
-5z m136 1 c8 -10 7 -14 -4 -14 -8 0 -12 4 -9 8 2 4 -2 10 -8 12 -8 4 -9 6 -2
6 6 1 17 -5 23 -12z m-7759 -5 c0 -5 -7 -9 -15 -9 -8 0 -12 4 -9 9 3 4 9 8 15
8 5 0 9 -4 9 -8z m524 -3 c3 -3 -5 -5 -19 -5 -13 0 -22 3 -19 7 4 8 30 6 38
-2z m320 0 c3 -3 -5 -5 -19 -5 -13 0 -22 3 -19 7 4 8 30 6 38 -2z m480 0 c3
-3 -5 -5 -19 -5 -13 0 -22 3 -19 7 4 8 30 6 38 -2z m480 0 c3 -3 -5 -5 -19 -5
-13 0 -22 3 -19 7 4 8 30 6 38 -2z m320 0 c3 -3 -5 -5 -19 -5 -13 0 -22 3 -19
7 4 8 30 6 38 -2z m480 0 c3 -3 -5 -5 -19 -5 -13 0 -22 3 -19 7 4 8 30 6 38
-2z m480 0 c3 -3 -5 -5 -19 -5 -13 0 -22 3 -19 7 4 8 30 6 38 -2z m320 0 c3
-3 -5 -5 -19 -5 -13 0 -22 3 -19 7 4 8 30 6 38 -2z m480 0 c3 -3 -5 -5 -19 -5
-13 0 -22 3 -19 7 4 8 30 6 38 -2z m480 0 c3 -3 -5 -5 -19 -5 -13 0 -22 3 -19
7 4 8 30 6 38 -2z m320 0 c3 -3 -5 -5 -19 -5 -13 0 -22 3 -19 7 4 8 30 6 38
-2z m480 0 c3 -3 -5 -5 -19 -5 -13 0 -22 3 -19 7 4 8 30 6 38 -2z m480 0 c3
-3 -5 -5 -19 -5 -13 0 -22 3 -19 7 4 8 30 6 38 -2z m320 0 c3 -3 -5 -5 -19 -5
-13 0 -22 3 -19 7 4 8 30 6 38 -2z m480 0 c3 -3 -5 -5 -19 -5 -13 0 -22 3 -19
7 4 8 30 6 38 -2z m480 0 c3 -3 -5 -5 -19 -5 -13 0 -22 3 -19 7 4 8 30 6 38
-2z m320 0 c3 -3 -5 -5 -19 -5 -13 0 -22 3 -19 7 4 8 30 6 38 -2z m480 0 c3
-3 -5 -5 -19 -5 -13 0 -22 3 -19 7 4 8 30 6 38 -2z"/>
<path d="M4630 9480 c0 -5 5 -10 11 -10 5 0 7 5 4 10 -3 6 -8 10 -11 10 -2 0
-4 -4 -4 -10z"/>
<path d="M4276 9463 c-6 -14 -5 -15 5 -6 7 7 10 15 7 18 -3 3 -9 -2 -12 -12z"/>
<path d="M4717 9463 c-4 -3 -7 -13 -7 -22 1 -13 3 -13 11 2 11 19 8 33 -4 20z"/>
<path d="M4057 9360 c18 -20 43 -22 35 -2 -4 11 -7 12 -10 4 -3 -10 -7 -10
-20 0 -14 10 -15 10 -5 -2z"/>
<path d="M5040 9286 c0 -8 4 -17 9 -20 5 -4 7 3 4 14 -6 23 -13 26 -13 6z"/>
<path d="M3875 9280 c-3 -5 -1 -10 4 -10 6 0 11 5 11 10 0 6 -2 10 -4 10 -3 0
-8 -4 -11 -10z"/>
<path d="M3690 9175 c-7 -9 -11 -17 -9 -20 3 -2 10 5 17 15 14 24 10 26 -8 5z"/>
<path d="M3640 9160 c-8 -5 -10 -10 -5 -10 6 0 17 5 25 10 8 5 11 10 5 10 -5
0 -17 -5 -25 -10z"/>
<path d="M5670 8961 c0 -6 4 -13 10 -16 6 -3 7 1 4 9 -7 18 -14 21 -14 7z"/>
<path d="M5976 8813 c-6 -14 -5 -15 5 -6 7 7 10 15 7 18 -3 3 -9 -2 -12 -12z"/>
<path d="M6064 8758 c-5 -7 -3 -8 6 -3 7 4 16 2 20 -5 9 -15 60 -23 60 -10 0
4 -11 7 -24 6 -14 -2 -27 3 -30 10 -7 17 -22 18 -32 2z"/>
<path d="M6255 8660 c20 -22 35 -26 35 -9 0 5 -4 7 -10 4 -5 -3 -10 -2 -10 3
0 6 -8 13 -17 16 -15 6 -15 4 2 -14z"/>
<path d="M2536 8618 c3 -5 10 -6 15 -3 13 9 11 12 -6 12 -8 0 -12 -4 -9 -9z"/>
<path d="M2369 8523 c-1 -5 -1 -12 0 -17 1 -5 -7 -6 -18 -3 -14 3 -18 1 -14
-9 7 -18 36 -3 39 20 1 9 0 16 -2 16 -2 0 -5 -3 -5 -7z"/>
<path d="M2390 8509 c0 -5 5 -7 10 -4 6 3 10 8 10 11 0 2 -4 4 -10 4 -5 0 -10
-5 -10 -11z"/>
<path d="M6729 8433 c-13 -16 -12 -17 4 -4 9 7 17 15 17 17 0 8 -8 3 -21 -13z"/>
<path d="M6760 8434 c-11 -13 -10 -19 10 -37 13 -12 19 -15 12 -6 -7 9 -8 20
-4 24 4 5 1 5 -7 0 -9 -5 -12 -3 -9 6 3 8 11 13 17 11 7 -1 10 2 6 8 -8 13
-10 13 -25 -6z"/>
<path d="M6795 8411 c-3 -5 -2 -12 3 -15 5 -3 9 1 9 9 0 17 -3 19 -12 6z"/>
<path d="M6911 8336 c2 -2 15 -9 29 -15 24 -11 24 -11 6 3 -16 13 -49 24 -35
12z"/>
<path d="M1889 8263 c-12 -16 -12 -17 2 -6 9 7 20 9 24 5 5 -4 5 -1 1 6 -9 16
-11 15 -27 -5z"/>
<path d="M1760 8211 c0 -7 -4 -10 -8 -7 -5 3 -9 -2 -9 -10 0 -13 2 -13 16 0 8
9 12 19 8 22 -4 4 -7 2 -7 -5z"/>
<path d="M7207 8203 c-4 -6 4 -18 16 -26 20 -13 24 -13 24 -1 0 8 -3 12 -5 9
-3 -3 -10 3 -17 12 -7 10 -14 12 -18 6z"/>
<path d="M7307 8145 c3 -8 9 -12 14 -9 12 7 11 11 -5 17 -10 4 -13 1 -9 -8z"/>
<path d="M1613 8135 c-3 -9 -3 -19 1 -22 3 -4 6 -1 6 6 0 7 4 9 10 6 6 -3 7 1
4 9 -8 20 -13 20 -21 1z"/>
<path d="M7606 7983 c-6 -14 -5 -15 5 -6 7 7 10 15 7 18 -3 3 -9 -2 -12 -12z"/>
<path d="M7772 7911 c7 -9 13 -18 15 -20 1 -2 1 5 0 16 0 11 -7 20 -14 20 -10
0 -10 -4 -1 -16z"/>
<path d="M7805 7900 c-8 -13 8 -18 29 -10 19 6 19 7 -2 12 -12 4 -24 2 -27 -2z"/>
<path d="M1060 7839 c0 -5 5 -7 10 -4 6 3 10 8 10 11 0 2 -4 4 -10 4 -5 0 -10
-5 -10 -11z"/>
<path d="M7910 7835 c13 -16 30 -11 30 8 0 7 -4 6 -10 -3 -6 -10 -10 -11 -10
-2 0 6 -5 12 -11 12 -8 0 -8 -5 1 -15z"/>
<path d="M7974 7798 c-5 -8 3 -12 20 -9 4 1 13 -3 20 -8 6 -5 18 -6 25 -2 9 6
10 11 2 15 -6 4 -11 2 -11 -4 0 -6 -5 -8 -10 -5 -6 4 -8 10 -6 14 3 3 -4 7
-15 7 -11 0 -23 -4 -25 -8z"/>
<path d="M8260 7676 c0 -2 7 -7 16 -10 8 -3 12 -2 9 4 -6 10 -25 14 -25 6z"/>
<path d="M8450 7571 c0 -6 4 -12 8 -15 5 -3 9 1 9 9 0 8 -4 15 -9 15 -4 0 -8
-4 -8 -9z"/>
<path d="M395 7520 c-3 -5 -1 -10 4 -10 6 0 11 5 11 10 0 6 -2 10 -4 10 -3 0
-8 -4 -11 -10z"/>
<path d="M8597 7485 c-4 -8 -3 -16 1 -19 4 -3 9 4 9 15 2 23 -3 25 -10 4z"/>
<path d="M8708 7168 c5 -5 16 -8 23 -6 8 3 3 7 -10 11 -17 4 -21 3 -13 -5z"/>
<path d="M8710 7146 c0 -2 7 -7 16 -10 8 -3 12 -2 9 4 -6 10 -25 14 -25 6z"/>
<path d="M8709 6897 c-10 -16 -2 -47 14 -56 18 -12 19 -12 3 10 -20 29 -20 40
-1 33 8 -4 15 -4 15 -1 0 5 -29 18 -31 14z"/>
<path d="M239 6792 c12 -8 11 -11 -3 -15 -15 -4 -15 -5 1 -3 19 1 21 19 1 24
-10 3 -10 1 1 -6z"/>
<path d="M234 6699 c-2 -28 9 -38 21 -20 3 5 1 12 -5 16 -6 4 -8 10 -5 15 3 5
2 11 -2 13 -5 3 -9 -8 -9 -24z"/>
<path d="M8710 6642 c0 -5 7 -9 15 -9 8 0 12 4 9 9 -3 4 -9 8 -15 8 -5 0 -9
-4 -9 -8z"/>
<path d="M220 6636 c0 -2 7 -7 16 -10 8 -3 12 -2 9 4 -6 10 -25 14 -25 6z"/>
<path d="M8710 6576 c0 -2 8 -10 18 -17 15 -13 16 -12 3 4 -13 16 -21 21 -21
13z"/>
<path d="M230 6529 c0 -5 -6 -7 -12 -3 -7 4 -9 3 -5 -1 13 -15 34 -14 34 1 0
8 -4 14 -9 14 -4 0 -8 -5 -8 -11z"/>
<path d="M231 6354 c6 -7 16 -11 21 -8 11 7 3 17 -18 20 -12 2 -13 -1 -3 -12z"/>
<path d="M8710 6261 c0 -6 5 -13 12 -17 6 -4 8 -3 4 4 -3 5 0 13 6 15 8 3 6 6
-4 6 -10 1 -18 -3 -18 -8z"/>
<path d="M8718 6123 c7 -3 16 -2 19 1 4 3 -2 6 -13 5 -11 0 -14 -3 -6 -6z"/>
<path d="M8710 5842 c0 -5 7 -9 15 -9 8 0 12 4 9 9 -3 4 -9 8 -15 8 -5 0 -9
-4 -9 -8z"/>
<path d="M239 5832 c12 -8 11 -11 -3 -15 -15 -4 -15 -5 1 -3 19 1 21 19 1 24
-10 3 -10 1 1 -6z"/>
<path d="M234 5739 c-2 -28 9 -38 21 -20 3 5 1 12 -5 16 -6 4 -8 10 -5 15 3 5
2 11 -2 13 -5 3 -9 -8 -9 -24z"/>
<path d="M220 5676 c0 -2 7 -7 16 -10 8 -3 12 -2 9 4 -6 10 -25 14 -25 6z"/>
<path d="M230 5569 c0 -5 -6 -7 -12 -3 -7 4 -9 3 -5 -1 13 -15 34 -14 34 1 0
8 -4 14 -9 14 -4 0 -8 -5 -8 -11z"/>
<path d="M8718 5483 c7 -3 16 -2 19 1 4 3 -2 6 -13 5 -11 0 -14 -3 -6 -6z"/>
<path d="M231 5394 c6 -7 16 -11 21 -8 11 7 3 17 -18 20 -12 2 -13 -1 -3 -12z"/>
<path d="M8710 5202 c0 -5 7 -9 15 -9 8 0 12 4 9 9 -3 4 -9 8 -15 8 -5 0 -9
-4 -9 -8z"/>
<path d="M8710 4945 c-10 -12 -9 -16 4 -21 9 -4 20 -4 23 0 4 3 -2 6 -12 6
-14 0 -15 3 -5 15 7 8 10 15 7 15 -2 0 -10 -7 -17 -15z"/>
<path d="M8710 4906 c0 -2 7 -7 16 -10 8 -3 12 -2 9 4 -6 10 -25 14 -25 6z"/>
<path d="M239 4872 c12 -8 11 -11 -3 -15 -15 -4 -15 -5 1 -3 19 1 21 19 1 24
-10 3 -10 1 1 -6z"/>
<path d="M234 4779 c-2 -28 9 -38 21 -20 3 5 1 12 -5 16 -6 4 -8 10 -5 15 3 5
2 11 -2 13 -5 3 -9 -8 -9 -24z"/>
<path d="M220 4716 c0 -2 7 -7 16 -10 8 -3 12 -2 9 4 -6 10 -25 14 -25 6z"/>
<path d="M8709 4657 c-10 -16 -2 -47 14 -56 18 -12 19 -12 3 10 -20 29 -20 40
-1 33 8 -4 15 -4 15 -1 0 5 -29 18 -31 14z"/>
<path d="M230 4609 c0 -5 -6 -7 -12 -3 -7 4 -9 3 -5 -1 13 -15 34 -14 34 1 0
8 -4 14 -9 14 -4 0 -8 -5 -8 -11z"/>
<path d="M231 4434 c6 -7 16 -11 21 -8 11 7 3 17 -18 20 -12 2 -13 -1 -3 -12z"/>
<path d="M8710 4402 c0 -5 7 -9 15 -9 8 0 12 4 9 9 -3 4 -9 8 -15 8 -5 0 -9
-4 -9 -8z"/>
<path d="M8710 4336 c0 -2 8 -10 18 -17 15 -13 16 -12 3 4 -13 16 -21 21 -21
13z"/>
<path d="M8714 4014 c4 -9 1 -23 -5 -30 -9 -11 -7 -15 5 -20 9 -4 20 -4 23 0
4 3 -2 6 -12 6 -14 0 -15 3 -5 15 6 8 9 18 6 24 -3 5 0 12 6 14 8 3 5 6 -6 6
-13 1 -16 -4 -12 -15z"/>
<path d="M8710 3946 c0 -2 7 -7 16 -10 8 -3 12 -2 9 4 -6 10 -25 14 -25 6z"/>
<path d="M239 3912 c12 -8 11 -11 -3 -15 -15 -4 -15 -5 1 -3 19 1 21 19 1 24
-10 3 -10 1 1 -6z"/>
<path d="M234 3819 c-2 -28 9 -38 21 -20 3 5 1 12 -5 16 -6 4 -8 10 -5 15 3 5
2 11 -2 13 -5 3 -9 -8 -9 -24z"/>
<path d="M220 3756 c0 -2 7 -7 16 -10 8 -3 12 -2 9 4 -6 10 -25 14 -25 6z"/>
<path d="M8715 3689 c4 -5 1 -16 -5 -24 -10 -12 -9 -16 4 -21 9 -4 20 -4 23 0
4 3 -2 6 -12 6 -17 0 -17 1 -1 19 15 17 15 19 1 25 -10 3 -14 2 -10 -5z"/>
<path d="M230 3649 c0 -5 -6 -7 -12 -3 -7 4 -9 3 -5 -1 13 -15 34 -14 34 1 0
8 -4 14 -9 14 -4 0 -8 -5 -8 -11z"/>
<path d="M8710 3626 c0 -2 7 -7 16 -10 8 -3 12 -2 9 4 -6 10 -25 14 -25 6z"/>
<path d="M231 3474 c6 -7 16 -11 21 -8 11 7 3 17 -18 20 -12 2 -13 -1 -3 -12z"/>
<path d="M8709 3377 c-10 -16 -2 -47 14 -56 18 -12 19 -12 3 10 -20 29 -20 40
-1 33 8 -4 15 -4 15 -1 0 5 -29 18 -31 14z"/>
<path d="M8710 3122 c0 -5 7 -9 15 -9 8 0 12 4 9 9 -3 4 -9 8 -15 8 -5 0 -9
-4 -9 -8z"/>
<path d="M8710 3056 c0 -2 8 -10 18 -17 15 -13 16 -12 3 4 -13 16 -21 21 -21
13z"/>
<path d="M239 2952 c12 -8 11 -11 -3 -15 -15 -4 -15 -5 1 -3 19 1 21 19 1 24
-10 3 -10 1 1 -6z"/>
<path d="M234 2859 c-2 -28 9 -38 21 -20 3 5 1 12 -5 16 -6 4 -8 10 -5 15 3 5
2 11 -2 13 -5 3 -9 -8 -9 -24z"/>
<path d="M220 2796 c0 -2 7 -7 16 -10 8 -3 12 -2 9 4 -6 10 -25 14 -25 6z"/>
<path d="M8714 2734 c4 -9 1 -23 -5 -30 -9 -11 -7 -15 5 -20 9 -4 20 -4 23 0
4 3 -2 6 -12 6 -14 0 -15 3 -5 15 6 8 9 18 6 24 -3 5 0 12 6 14 8 3 5 6 -6 6
-13 1 -16 -4 -12 -15z"/>
<path d="M230 2689 c0 -5 -6 -7 -12 -3 -7 4 -9 3 -5 -1 13 -15 34 -14 34 1 0
8 -4 14 -9 14 -4 0 -8 -5 -8 -11z"/>
<path d="M8710 2666 c0 -2 7 -7 16 -10 8 -3 12 -2 9 4 -6 10 -25 14 -25 6z"/>
<path d="M231 2514 c6 -7 16 -11 21 -8 11 7 3 17 -18 20 -12 2 -13 -1 -3 -12z"/>
<path d="M8706 2412 c-3 -4 4 -9 15 -9 23 -2 25 3 4 10 -8 4 -16 3 -19 -1z"/>
<path d="M8718 2283 c7 -3 16 -2 19 1 4 3 -2 6 -13 5 -11 0 -14 -3 -6 -6z"/>
<path d="M8710 2002 c0 -5 7 -9 15 -9 8 0 12 4 9 9 -3 4 -9 8 -15 8 -5 0 -9
-4 -9 -8z"/>
<path d="M239 1992 c12 -8 11 -11 -3 -15 -15 -4 -15 -5 1 -3 19 1 21 19 1 24
-10 3 -10 1 1 -6z"/>
<path d="M234 1899 c-2 -28 9 -38 21 -20 3 5 1 12 -5 16 -6 4 -8 10 -5 15 3 5
2 11 -2 13 -5 3 -9 -8 -9 -24z"/>
<path d="M220 1836 c0 -2 7 -7 16 -10 8 -3 12 -2 9 4 -6 10 -25 14 -25 6z"/>
<path d="M230 1729 c0 -5 -6 -7 -12 -3 -7 4 -9 3 -5 -1 13 -15 34 -14 34 1 0
8 -4 14 -9 14 -4 0 -8 -5 -8 -11z"/>
<path d="M8718 1643 c7 -3 16 -2 19 1 4 3 -2 6 -13 5 -11 0 -14 -3 -6 -6z"/>
<path d="M231 1554 c6 -7 16 -11 21 -8 11 7 3 17 -18 20 -12 2 -13 -1 -3 -12z"/>
<path d="M8710 1362 c0 -5 7 -9 15 -9 8 0 12 4 9 9 -3 4 -9 8 -15 8 -5 0 -9
-4 -9 -8z"/>
<path d="M235 1130 c-3 -5 -4 -14 -1 -19 4 -5 0 -12 -6 -14 -8 -4 -7 -6 3 -6
12 -1 16 7 15 24 -1 28 -2 29 -11 15z"/>
<path d="M8713 888 c-2 -18 0 -20 7 -8 12 18 13 30 2 30 -4 0 -9 -10 -9 -22z"/>
<path d="M362 627 c7 -7 22 -16 33 -20 16 -6 15 -3 -5 13 -28 22 -49 27 -28 7z"/>
<path d="M8530 600 c-13 -11 -27 -20 -32 -20 -5 0 -6 -5 -2 -11 4 -8 9 -7 15
2 5 8 9 11 9 7 0 -5 9 1 21 13 27 27 19 35 -11 9z"/>
</g>
</svg>
